    <svg xmlns="http://www.w3.org/2000/svg">
    <symbol id="arrow" xmlns="http://www.w3.org/2000/svg" width="11.4" height="9.2"><path d="M11.3 4.1L8.1.2c-.3-.2-.7-.3-1 0-.3.2-.3.6-.1.9l2.3 2.8H.7c-.4 0-.7.3-.7.7 0 .4.3.7.7.7h8.6L7 8c-.2.3-.2.8.1 1 .3.2.7.2 1-.1L11.3 5c.2-.3.2-.6 0-.9z"/></symbol>
    <symbol id="share" xmlns="http://www.w3.org/2000/svg" width="18" height="20.2"><path d="M14.3 18.5c-1.1 0-1.9-.9-1.9-1.9 0-1.1.9-1.9 1.9-1.9 1.1 0 1.9.9 1.9 1.9.1 1-.8 1.9-1.9 1.9zM3.5 12.3c-1.1 0-1.9-.9-1.9-1.9 0-1.1.9-1.9 1.9-1.9 1.1 0 1.9.9 1.9 1.9.1 1.1-.8 1.9-1.9 1.9zM14.3 1.7c1.1 0 1.9.9 1.9 1.9 0 1.1-.9 1.9-1.9 1.9-1.1 0-1.9-.9-1.9-1.9 0-1.1.8-1.9 1.9-1.9zm0 11.2c-1.2 0-2.2.6-2.9 1.5l-4.5-2.6c.2-.4.3-.9.3-1.4 0-.7-.2-1.3-.5-1.9L11.6 6c.7.8 1.7 1.3 2.7 1.3 2 0 3.6-1.7 3.6-3.6 0-2-1.7-3.6-3.6-3.6-2 0-3.6 1.7-3.6 3.6 0 .3 0 .6.1.9L5.4 7.3c-.5-.3-1.1-.5-1.8-.5-2 0-3.6 1.7-3.6 3.6 0 2 1.7 3.6 3.6 3.6.9 0 1.7-.3 2.3-.8l4.8 2.7v.6c0 2 1.7 3.6 3.6 3.6 2 0 3.6-1.7 3.6-3.6.1-1.9-1.6-3.6-3.6-3.6z"/></symbol>
    <symbol id="scroll" xmlns="http://www.w3.org/2000/svg" width="15" height="22.1"><path class="st0" d="M7.5 16.5c.6 0 1.1.5 1.1 1.1 0 .6-.5 1.1-1.1 1.1-.6 0-1.1-.5-1.1-1.1 0-.6.5-1.1 1.1-1.1zM7.5 9.8c.6 0 1.1.5 1.1 1.1 0 .6-.5 1.1-1.1 1.1-.6 0-1.1-.5-1.1-1.1 0-.6.5-1.1 1.1-1.1zM7.5 6.5c.6 0 1.1.5 1.1 1.1 0 .6-.5 1.1-1.1 1.1-.6 0-1.1-.5-1.1-1.1 0-.6.5-1.1 1.1-1.1zM7.5 3.2c.6 0 1.1.5 1.1 1.1 0 .6-.5 1.1-1.1 1.1-.6 0-1.1-.5-1.1-1.1 0-.6.5-1.1 1.1-1.1zM7.5 0c.6 0 1.1.5 1.1 1.1 0 .6-.5 1.1-1.1 1.1-.6 0-1.1-.5-1.1-1.1C6.4.5 6.9 0 7.5 0zM7.5 19.8c.6 0 1.1.5 1.1 1.1 0 .6-.5 1.1-1.1 1.1-.6 0-1.1-.5-1.1-1.1 0-.6.5-1.1 1.1-1.1zM4.2 16.5c.6 0 1.1.5 1.1 1.1 0 .6-.5 1.1-1.1 1.1-.6 0-1.1-.5-1.1-1.1 0-.6.5-1.1 1.1-1.1zM10.6 16.5c.6 0 1.1.5 1.1 1.1 0 .6-.5 1.1-1.1 1.1-.6 0-1.1-.5-1.1-1.1 0-.6.5-1.1 1.1-1.1zM7.5 13.2c.6 0 1.1.5 1.1 1.1 0 .6-.5 1.1-1.1 1.1-.6 0-1.1-.5-1.1-1.1 0-.6.5-1.1 1.1-1.1zM1.9 13.5c.4.4.4 1.2 0 1.6-.4.4-1.2.4-1.6 0-.4-.4-.4-1.2 0-1.6.5-.4 1.2-.4 1.6 0M4.3 13.2c.6 0 1.1.5 1.1 1.1 0 .6-.5 1.1-1.1 1.1-.6 0-1.1-.5-1.1-1.1 0-.6.5-1.1 1.1-1.1zM14.7 13.5c.4.4.4 1.2 0 1.6-.4.4-1.2.4-1.6 0-.4-.4-.4-1.2 0-1.6.4-.4 1.1-.4 1.6 0M10.7 13.2c.6 0 1.1.5 1.1 1.1 0 .6-.5 1.1-1.1 1.1-.6 0-1.1-.5-1.1-1.1 0-.6.5-1.1 1.1-1.1z"/></symbol>
    <symbol id="scroll_mare" xmlns="http://www.w3.org/2000/svg" width="32" height="47.1"><path d="M16 35.2c1.3 0 2.4 1.1 2.4 2.4 0 1.3-1.1 2.4-2.4 2.4-1.3 0-2.4-1.1-2.4-2.4 0-1.3 1.1-2.4 2.4-2.4zM16 21c1.3 0 2.4 1.1 2.4 2.4 0 1.3-1.1 2.4-2.4 2.4-1.3 0-2.4-1.1-2.4-2.4 0-1.3 1.1-2.4 2.4-2.4zM16 13.9c1.3 0 2.4 1.1 2.4 2.4 0 1.3-1.1 2.4-2.4 2.4-1.3 0-2.4-1.1-2.4-2.4 0-1.3 1.1-2.4 2.4-2.4zM16 6.8c1.3 0 2.4 1.1 2.4 2.4 0 1.3-1.1 2.4-2.4 2.4-1.3 0-2.4-1.1-2.4-2.4 0-1.3 1.1-2.4 2.4-2.4zM16 0c1.3 0 2.4 1.1 2.4 2.4 0 1.3-1.1 2.4-2.4 2.4-1.3 0-2.4-1.1-2.4-2.4C13.6 1.1 14.7 0 16 0zM16 42.3c1.3 0 2.4 1.1 2.4 2.4 0 1.3-1.1 2.4-2.4 2.4-1.3 0-2.4-1.1-2.4-2.4 0-1.3 1.1-2.4 2.4-2.4zM9 35.2c1.3 0 2.4 1.1 2.4 2.4 0 1.3-1.1 2.4-2.4 2.4-1.3 0-2.4-1.1-2.4-2.4 0-1.3 1.1-2.4 2.4-2.4zM22.7 35.2c1.3 0 2.4 1.1 2.4 2.4 0 1.3-1.1 2.4-2.4 2.4-1.3 0-2.4-1.1-2.4-2.4 0-1.3 1-2.4 2.4-2.4zM16 28.1c1.3 0 2.4 1.1 2.4 2.4 0 1.3-1.1 2.4-2.4 2.4-1.3 0-2.4-1.1-2.4-2.4 0-1.3 1.1-2.4 2.4-2.4zM4.1 28.8c.9.9.9 2.5 0 3.4-.9.9-2.5.9-3.4 0-.9-.9-.9-2.5 0-3.4 1-.9 2.5-.9 3.4 0M9.2 28.1c1.3 0 2.4 1.1 2.4 2.4 0 1.3-1.1 2.4-2.4 2.4-1.3 0-2.4-1.1-2.4-2.4 0-1.3 1.1-2.4 2.4-2.4zM31.3 28.8c.9.9.9 2.5 0 3.4-.9.9-2.5.9-3.4 0-.9-.9-.9-2.5 0-3.4.9-.9 2.4-.9 3.4 0M22.8 28.1c1.3 0 2.4 1.1 2.4 2.4 0 1.3-1.1 2.4-2.4 2.4-1.3 0-2.4-1.1-2.4-2.4 0-1.3 1-2.4 2.4-2.4z"/></symbol>
</svg>