<?xml version="1.0" encoding="utf-8"?>
<!-- Generator: Adobe Illustrator 23.0.3, SVG Export Plug-In . SVG Version: 6.00 Build 0)  -->
<svg version="1.2" baseProfile="tiny" id="Layer_1" xmlns="http://www.w3.org/2000/svg" xmlns:xlink="http://www.w3.org/1999/xlink"
	 x="0px" y="0px" viewBox="0 0 100 156" xml:space="preserve">
<rect id="Прямоугольник_4301" x="8.39" y="96.73" fill="#BDB0FF" width="3.15" height="3.82"/>
<rect id="Прямоугольник_4305" x="4.03" y="106.79" transform="matrix(0.7071 -0.7071 0.7071 0.7071 -74.8882 35.9398)" fill="#BDB0FF" width="3.82" height="3.15"/>
<g id="Сгруппировать_10807" transform="translate(638.705 405.23)">
	<path id="Контур_25866" fill="#FFFFFF" d="M-547.93-263.58c-0.46-0.01-0.86-0.32-0.98-0.76c-0.16-0.55,0.14-1.14,0.69-1.32
		c0.26-0.08,0.54-0.05,0.78,0.08c0.24,0.14,0.42,0.36,0.49,0.63c0.16,0.55-0.14,1.14-0.69,1.32
		C-547.74-263.6-547.84-263.58-547.93-263.58z M-547.93-265.3c-0.06,0-0.12,0.01-0.18,0.03c-0.16,0.05-0.3,0.16-0.37,0.32
		c-0.08,0.15-0.1,0.33-0.05,0.5c0.05,0.17,0.15,0.31,0.3,0.39c0.15,0.08,0.32,0.1,0.48,0.05c0.16-0.05,0.3-0.16,0.37-0.32
		c0.08-0.15,0.1-0.33,0.05-0.5c-0.05-0.16-0.15-0.31-0.3-0.39C-547.73-265.27-547.83-265.3-547.93-265.3L-547.93-265.3z"/>
</g>
<path id="Контур_25929" fill="#FFA800" d="M33.32,125.57l2.52,9.19h29.28l2.34-9.19H33.32z"/>
<path id="Контур_25930" fill="#FCCA22" d="M28.35,108.63l-2.9,3.25L5.95,133.7c-0.84,0.93-2.28,1-3.21,0.16
	c-0.5-0.45-0.77-1.11-0.74-1.78v-27.84c-0.01-6.72,1.85-13.32,5.38-19.04l1.69-2.72l12.58-20.32L28.35,108.63z"/>
<path id="Контур_25931" fill="#FCCA22" d="M98.77,100.39v32.79c0.05,1.02-0.75,1.89-1.77,1.94c-0.55,0.02-1.09-0.2-1.46-0.61
	l-22.96-25.7l-0.16-0.18l6.71-46.48L93.2,84.88l2.19,3.54C97.61,92.02,98.78,96.17,98.77,100.39z"/>
<path id="Контур_25932" fill="#FF2E57" d="M77.74,103.86c-1.86,8.18-4.56,16.15-8.07,23.77H31.1
	C9.37,79.92,25.24,40.57,38.19,19.66c1.31-2.1,2.58-4.02,3.78-5.73c2.54-3.71,5.35-7.22,8.42-10.51c0,0,5.73,5.83,12.19,16.25
	C73.32,36.98,86.06,66.96,77.74,103.86z"/>
<ellipse id="Эллипс_1059" fill="#FCCA22" cx="50.75" cy="59.15" rx="16.71" ry="17.43"/>
<path id="Контур_25933" fill="#D7D4FF" d="M55.04,69.72c-6.67,0-12.07-5.64-12.07-12.59c-0.03-4.02,1.85-7.82,5.06-10.25
	c-5.36,1.29-9.35,6.29-9.35,12.27c0,6.96,5.4,12.59,12.07,12.59c2.53,0,4.99-0.83,7.01-2.35C56.87,69.61,55.96,69.72,55.04,69.72z"
	/>
<path id="Контур_25934" fill="#FFA800" d="M98.77,100.39v32.79c0.05,1.02-0.75,1.89-1.77,1.94c-0.55,0.02-1.09-0.2-1.46-0.61
	l-22.96-25.7l2.05,2.29c0,0,16.93-1.84,18.57-26.23l2.19,3.54C97.61,92.02,98.78,96.17,98.77,100.39z"/>
<path id="Контур_25935" fill="#BA2650" d="M77.74,102.86c-1.86,8.18-4.56,16.15-8.07,23.77H31.1
	C9.37,78.92,25.24,39.57,38.19,18.66c1.31-2.1,2.58-4.02,3.78-5.73c0.59-0.12,1.21,0.02,1.69,0.39c-0.41,1.26-0.86,2.5-1.33,3.73
	c-4.31,11.17-9.08,21.61-11.53,33.51c-3.21,15.61-6.73,38.53,3.59,52.12c7.1,9.36,19.95,13.42,29.74,8.2
	C67.79,108.94,77.74,102.86,77.74,102.86L77.74,102.86z"/>
<ellipse id="Эллипс_1061" fill="#FCCA22" cx="50.75" cy="124.82" rx="5.03" ry="28.49"/>
<path id="Контур_25936" fill="#FCCA22" d="M62.58,18.66H38.19c6.46-10.41,12.2-16.25,12.2-16.25S56.12,8.25,62.58,18.66z"/>
<path id="Контур_25937" fill="#FFA800" d="M50.39,2.41L41.7,18.66h-3.51C44.65,8.25,50.39,2.41,50.39,2.41z"/>
<path id="Контур_25938" fill="#FFA800" d="M25.45,111.88L5.95,133.7c-0.84,0.93-2.28,1-3.21,0.16
	c-0.5-0.45-0.77-1.11-0.74-1.78v-27.84c-0.01-6.72,1.85-13.32,5.38-19.04l1.69-2.72C11.08,105.78,25.45,111.88,25.45,111.88z"/>
<path id="Контур_25939" fill="#FFFFFF" d="M47.82,126.63c0.24,1.67,0.43,3.34,0.62,5c0.11,0.83,0.19,1.66,0.3,2.49
	c0.1,0.83,0.2,1.66,0.31,2.49c0.1,0.83,0.21,1.66,0.32,2.49c0.1,0.83,0.23,1.66,0.33,2.49c0.23,1.66,0.46,3.32,0.65,5
	c-0.52-1.6-0.95-3.24-1.29-4.89c-0.09-0.41-0.17-0.83-0.25-1.24c-0.08-0.41-0.15-0.83-0.22-1.24c-0.07-0.42-0.13-0.83-0.19-1.25
	c-0.06-0.42-0.12-0.83-0.18-1.25c-0.05-0.42-0.1-0.84-0.14-1.26c-0.04-0.42-0.09-0.84-0.13-1.26c-0.03-0.42-0.07-0.84-0.1-1.26
	c-0.03-0.42-0.05-0.84-0.07-1.26C47.72,130,47.73,128.31,47.82,126.63z"/>
<path id="Контур_25940" fill="#FFFFFF" d="M48.9,106.36c-0.08,1.18-0.17,2.36-0.26,3.54l-0.27,3.52l-0.28,3.52
	c-0.1,1.18-0.2,2.35-0.35,3.53c-0.11-1.18-0.15-2.37-0.14-3.55c0-1.18,0.07-2.37,0.15-3.55c0.06-0.59,0.11-1.18,0.17-1.77
	c0.07-0.59,0.14-1.18,0.24-1.76C48.34,108.66,48.58,107.5,48.9,106.36z"/>
<path id="Контур_25941" fill="#FFFFFF" d="M72.75,62.14c0.15,0.38,0.27,0.77,0.38,1.16c0.1,0.39,0.21,0.78,0.29,1.17
	c0.17,0.78,0.29,1.58,0.38,2.37c0.08,0.8,0.11,1.6,0.09,2.4c-0.03,0.8-0.08,1.6-0.12,2.4c-0.04,0.8-0.1,1.59-0.16,2.39
	c-0.08,0.79-0.16,1.59-0.27,2.38c-0.22,1.58-0.48,3.15-0.84,4.7l-0.14-0.02c0.13-1.58,0.23-3.15,0.26-4.73
	c0.02-0.79,0.03-1.58,0.03-2.36c0-0.79-0.01-1.57-0.03-2.36c-0.02-0.79-0.09-1.57-0.15-2.35c-0.07-0.78-0.1-1.56-0.1-2.35
	s0.01-1.57,0.05-2.37c0.01-0.4,0.04-0.79,0.07-1.19c0.03-0.4,0.06-0.8,0.13-1.21L72.75,62.14z"/>
<path id="Контур_25942" fill="#FFFFFF" d="M60.04,25.75c0.89,0.93,1.71,1.94,2.43,3.02c0.72,1.06,1.39,2.16,2,3.29
	c0.61,1.13,1.14,2.29,1.59,3.49l0.65,1.8c0.21,0.6,0.42,1.21,0.63,1.81c0.21,0.6,0.42,1.21,0.62,1.81s0.41,1.21,0.59,1.82l0.54,1.83
	l0.13,0.46l0.12,0.46l0.24,0.92c0.66,2.46,1.17,4.96,1.6,7.46l-0.2,0.05c-0.75-2.42-1.49-4.84-2.38-7.2l-0.32-0.89l-0.16-0.44
	L67.95,45l-0.69-1.76c-0.22-0.59-0.48-1.16-0.71-1.75c-0.24-0.58-0.48-1.16-0.74-1.73s-0.51-1.15-0.78-1.71l-0.84-1.69
	c-0.57-1.12-1.09-2.26-1.58-3.41s-0.97-2.32-1.42-3.5c-0.46-1.18-0.91-2.37-1.31-3.59L60.04,25.75z"/>
</svg>
