<?xml version="1.0" encoding="utf-8"?>
<!-- Generator: Adobe Illustrator 23.0.3, SVG Export Plug-In . SVG Version: 6.00 Build 0)  -->
<svg version="1.1" id="Layer_1" xmlns="http://www.w3.org/2000/svg" xmlns:xlink="http://www.w3.org/1999/xlink" x="0px" y="0px"
	 viewBox="0 0 93 36" style="enable-background:new 0 0 93 36;" xml:space="preserve">
<g>
	<path d="M2.22,13.06C2.97,11.63,4,10.52,5.28,9.71c1.29-0.8,2.69-1.2,4.2-1.2c1.16,0,2.21,0.2,3.13,0.61
		c0.92,0.41,1.67,0.97,2.24,1.7V8.71h5.64v27.17h-5.64V24.8c-0.64,0.77-1.41,1.38-2.32,1.85c-0.91,0.46-1.95,0.69-3.12,0.69
		c-1.49,0-2.88-0.4-4.15-1.19c-1.27-0.79-2.29-1.9-3.05-3.33c-0.76-1.43-1.14-3.05-1.14-4.88C1.08,16.11,1.46,14.49,2.22,13.06z
		 M14.28,15.42c-0.38-0.67-0.89-1.18-1.5-1.52c-0.62-0.34-1.26-0.51-1.95-0.51c-0.66,0-1.3,0.17-1.91,0.51s-1.12,0.85-1.52,1.53
		c-0.4,0.68-0.59,1.52-0.59,2.51c0,0.99,0.2,1.82,0.59,2.49c0.4,0.67,0.9,1.18,1.52,1.52s1.25,0.51,1.91,0.51
		c0.66,0,1.3-0.17,1.93-0.51s1.13-0.85,1.52-1.53c0.38-0.68,0.58-1.52,0.58-2.51S14.67,16.09,14.28,15.42z"/>
	<path d="M42.75,8.71v18.4h-5.64V24.6c-0.57,0.81-1.35,1.47-2.32,1.96c-0.98,0.49-2.06,0.74-3.25,0.74c-1.41,0-2.65-0.31-3.73-0.94
		c-1.08-0.63-1.91-1.53-2.51-2.72c-0.59-1.19-0.89-2.58-0.89-4.19V8.71h5.6v9.99c0,1.23,0.32,2.19,0.96,2.87
		c0.64,0.68,1.49,1.02,2.57,1.02c1.1,0,1.97-0.34,2.6-1.02c0.64-0.68,0.96-1.64,0.96-2.87V8.71H42.75z"/>
	<path d="M47.21,5.92c-0.63-0.58-0.94-1.3-0.94-2.16c0-0.88,0.31-1.61,0.94-2.19c0.63-0.58,1.43-0.87,2.42-0.87
		c0.97,0,1.76,0.29,2.39,0.87c0.63,0.58,0.94,1.31,0.94,2.19c0,0.86-0.31,1.58-0.94,2.16C51.4,6.5,50.6,6.8,49.64,6.8
		C48.65,6.8,47.84,6.5,47.21,5.92z M52.44,8.71v18.4H46.8V8.71H52.44z"/>
	<path d="M72.9,10.6c1.29,1.4,1.93,3.31,1.93,5.75V27.1h-5.6v-9.99c0-1.23-0.32-2.19-0.96-2.87c-0.64-0.68-1.5-1.02-2.57-1.02
		c-1.08,0-1.93,0.34-2.57,1.02c-0.64,0.68-0.96,1.64-0.96,2.87v9.99h-5.64V8.71h5.64v2.44c0.57-0.81,1.34-1.46,2.31-1.93
		c0.97-0.47,2.05-0.71,3.26-0.71C69.89,8.51,71.61,9.21,72.9,10.6z"/>
	<path d="M78.96,26.49c-0.63-0.58-0.94-1.3-0.94-2.16c0-0.88,0.31-1.62,0.94-2.21c0.63-0.59,1.43-0.89,2.42-0.89
		c0.97,0,1.76,0.3,2.39,0.89c0.63,0.59,0.94,1.33,0.94,2.21c0,0.86-0.31,1.58-0.94,2.16c-0.63,0.58-1.42,0.87-2.39,0.87
		C80.4,27.37,79.59,27.08,78.96,26.49z"/>
</g>
</svg>
