<svg xmlns="http://www.w3.org/2000/svg" xmlns:xlink="http://www.w3.org/1999/xlink" viewBox="0 0 2072.78 1458"><defs><linearGradient id="linear-gradient" x1="892.36" y1="1639.6" x2="1655.84" y2="173.58" gradientUnits="userSpaceOnUse"><stop offset="0" stop-color="#dae3fe"/><stop offset="1" stop-color="#e9effd"/></linearGradient><linearGradient id="linear-gradient-2" x1="848.86" y1="382.5" x2="1023.26" y2="776.31" gradientUnits="userSpaceOnUse"><stop offset="0" stop-color="#ff928e"/><stop offset="1" stop-color="#feb3b1"/></linearGradient><linearGradient id="linear-gradient-3" x1="846.4" y1="383.59" x2="1020.8" y2="777.4" xlink:href="#linear-gradient-2"/><linearGradient id="linear-gradient-4" x1="853.43" y1="380.48" x2="1027.83" y2="774.29" xlink:href="#linear-gradient-2"/><linearGradient id="linear-gradient-5" x1="851.32" y1="381.41" x2="1025.72" y2="775.22" xlink:href="#linear-gradient-2"/><linearGradient id="linear-gradient-6" x1="843.99" y1="384.66" x2="1018.39" y2="778.47" xlink:href="#linear-gradient-2"/><linearGradient id="linear-gradient-7" x1="616.16" y1="577.54" x2="984.66" y2="785.69" gradientUnits="userSpaceOnUse"><stop offset="0" stop-color="#fe7062"/><stop offset="1" stop-color="#ff928e"/></linearGradient><linearGradient id="linear-gradient-8" x1="608.54" y1="591.03" x2="977.03" y2="799.19" xlink:href="#linear-gradient-7"/><linearGradient id="linear-gradient-9" x1="630.7" y1="551.8" x2="999.19" y2="759.96" xlink:href="#linear-gradient-7"/><linearGradient id="linear-gradient-10" x1="623.78" y1="564.04" x2="992.28" y2="772.2" xlink:href="#linear-gradient-7"/><linearGradient id="linear-gradient-11" x1="601.52" y1="603.46" x2="970.01" y2="811.62" xlink:href="#linear-gradient-7"/><linearGradient id="linear-gradient-12" x1="641.13" y1="1542.86" x2="930.13" y2="1155.17" gradientUnits="userSpaceOnUse"><stop offset="0" stop-color="#09005d"/><stop offset="1" stop-color="#1a0f91"/></linearGradient><linearGradient id="linear-gradient-13" x1="929.73" y1="509.32" x2="1455.77" y2="1446.21" gradientUnits="userSpaceOnUse"><stop offset="0" stop-color="#4042e2"/><stop offset="1" stop-color="#4f52ff"/></linearGradient><linearGradient id="linear-gradient-14" x1="1922.36" y1="629.19" x2="1386.63" y2="852.42" xlink:href="#linear-gradient-12"/><linearGradient id="linear-gradient-15" x1="1580.67" y1="919.34" x2="1793.26" y2="900.02" xlink:href="#linear-gradient-13"/><clipPath id="clip-path" transform="translate(-198.11 -96)"><path d="M1676.08,1282.17c-7.3-7.42-23.2-36.06-36.83-110.12-13.18-71.56-20.43-164.39-20.43-261.38s7.25-189.81,20.43-261.38c13.63-74.06,29.53-102.7,36.83-110.12,7.3,7.42,23.2,36.06,36.84,110.12,13.17,71.57,117.14,164.39,117.14,261.38s-104,189.82-117.14,261.38C1699.28,1246.11,1683.38,1274.75,1676.08,1282.17Z" fill="none"/></clipPath><linearGradient id="linear-gradient-16" x1="1848.88" y1="897.54" x2="1275.55" y2="930.44" gradientUnits="userSpaceOnUse"><stop offset="0" stop-color="#020039"/><stop offset="1" stop-color="#090056"/></linearGradient><linearGradient id="linear-gradient-17" x1="762.84" y1="1101.24" x2="741.69" y2="569.05" xlink:href="#linear-gradient-12"/><linearGradient id="linear-gradient-18" x1="963.2" y1="686.71" x2="1592.58" y2="686.71" xlink:href="#linear-gradient"/><linearGradient id="linear-gradient-19" x1="879.01" y1="813.64" x2="917.83" y2="813.64" xlink:href="#linear-gradient"/><linearGradient id="linear-gradient-20" x1="1633.6" y1="853.08" x2="1763.74" y2="853.08" xlink:href="#linear-gradient"/><linearGradient id="linear-gradient-21" x1="1374.39" y1="737.09" x2="1351.5" y2="888.15" xlink:href="#linear-gradient-16"/><linearGradient id="linear-gradient-22" x1="1365.35" y1="805.11" x2="1316.53" y2="982.95" xlink:href="#linear-gradient-13"/><linearGradient id="linear-gradient-23" x1="1363.54" y1="804.62" x2="1314.72" y2="982.46" xlink:href="#linear-gradient-13"/><linearGradient id="linear-gradient-24" x1="1359" y1="803.37" x2="1310.18" y2="981.21" xlink:href="#linear-gradient-13"/><linearGradient id="linear-gradient-25" x1="1357.79" y1="803.04" x2="1308.97" y2="980.88" xlink:href="#linear-gradient-13"/><linearGradient id="linear-gradient-26" x1="1381.08" y1="693.05" x2="1367.02" y2="414.57" xlink:href="#linear-gradient-7"/><linearGradient id="linear-gradient-27" x1="1399.18" y1="605.37" x2="1410.14" y2="953.58" gradientUnits="userSpaceOnUse"><stop offset="0" stop-color="#e1473d"/><stop offset="1" stop-color="#e9605a"/></linearGradient><linearGradient id="linear-gradient-28" x1="1338.81" y1="607.27" x2="1349.77" y2="955.49" xlink:href="#linear-gradient-27"/><linearGradient id="linear-gradient-29" x1="1320.61" y1="184.75" x2="1371.24" y2="541.99" xlink:href="#linear-gradient-2"/><linearGradient id="linear-gradient-30" x1="1505.63" y1="346.28" x2="1486.88" y2="478.48" xlink:href="#linear-gradient-2"/><linearGradient id="linear-gradient-31" x1="1513.35" y1="347.38" x2="1494.6" y2="479.57" xlink:href="#linear-gradient-2"/><linearGradient id="linear-gradient-32" x1="1736.56" y1="850.74" x2="2215.73" y2="850.74" xlink:href="#linear-gradient-7"/><linearGradient id="linear-gradient-33" x1="1665.75" y1="397.9" x2="1668.57" y2="653.87" xlink:href="#linear-gradient-2"/><linearGradient id="linear-gradient-34" x1="1691.58" y1="397.61" x2="1694.4" y2="653.59" xlink:href="#linear-gradient-2"/><linearGradient id="linear-gradient-35" x1="1718.22" y1="397.32" x2="1721.03" y2="653.3" xlink:href="#linear-gradient-2"/><linearGradient id="linear-gradient-36" x1="1743.51" y1="397.04" x2="1746.32" y2="653.02" xlink:href="#linear-gradient-2"/><linearGradient id="linear-gradient-37" x1="1770.2" y1="396.75" x2="1773.02" y2="652.73" xlink:href="#linear-gradient-2"/><linearGradient id="linear-gradient-38" x1="1796.11" y1="396.46" x2="1798.93" y2="652.44" xlink:href="#linear-gradient-2"/><linearGradient id="linear-gradient-39" x1="1822.01" y1="396.18" x2="1824.82" y2="652.16" xlink:href="#linear-gradient-2"/><linearGradient id="linear-gradient-40" x1="1848.73" y1="395.89" x2="1851.54" y2="651.86" xlink:href="#linear-gradient-2"/><linearGradient id="linear-gradient-41" x1="1874.66" y1="395.6" x2="1877.47" y2="651.58" xlink:href="#linear-gradient-2"/><linearGradient id="linear-gradient-42" x1="1900.52" y1="395.32" x2="1903.34" y2="651.29" xlink:href="#linear-gradient-2"/><linearGradient id="linear-gradient-43" x1="1925.91" y1="395.04" x2="1928.73" y2="651.01" xlink:href="#linear-gradient-2"/><linearGradient id="linear-gradient-44" x1="6229.04" y1="1470.11" x2="6014.27" y2="1703.71" gradientTransform="translate(-4983.74 -57.6) rotate(0.54)" xlink:href="#linear-gradient-12"/><linearGradient id="linear-gradient-45" x1="6159.33" y1="1487.45" x2="6178.41" y2="1487.45" gradientTransform="translate(-4983.74 -57.6) rotate(0.54)" xlink:href="#linear-gradient-2"/><linearGradient id="linear-gradient-46" x1="6245.96" y1="1205.9" x2="6063.2" y2="1453.61" gradientTransform="translate(-4983.74 -57.6) rotate(0.54)" xlink:href="#linear-gradient-12"/><linearGradient id="linear-gradient-47" x1="6180.86" y1="1425.8" x2="5966.08" y2="1659.42" gradientTransform="translate(-4983.74 -57.6) rotate(0.54)" xlink:href="#linear-gradient-12"/><linearGradient id="linear-gradient-48" x1="6090.57" y1="1486.47" x2="6107.04" y2="1486.47" gradientTransform="translate(-4983.74 -57.6) rotate(0.54)" xlink:href="#linear-gradient-2"/><linearGradient id="linear-gradient-49" x1="6213.39" y1="1181.87" x2="6030.63" y2="1429.57" gradientTransform="translate(-4983.74 -57.6) rotate(0.54)" xlink:href="#linear-gradient-12"/><linearGradient id="linear-gradient-50" x1="1249.98" y1="1036.64" x2="1351.23" y2="930.39" xlink:href="#linear-gradient-2"/><linearGradient id="linear-gradient-51" x1="1242.9" y1="1029.9" x2="1344.15" y2="923.64" xlink:href="#linear-gradient-2"/><linearGradient id="linear-gradient-52" x1="6334.85" y1="923.86" x2="6362.14" y2="881.9" gradientTransform="translate(-4983.74 -57.6) rotate(0.54)" xlink:href="#linear-gradient-2"/><linearGradient id="linear-gradient-53" x1="6024.58" y1="1127.79" x2="6147.92" y2="1127.79" gradientTransform="translate(-4983.74 -57.6) rotate(0.54)" xlink:href="#linear-gradient-2"/><linearGradient id="linear-gradient-54" x1="1155.84" y1="983.3" x2="1131.46" y2="1075.18" xlink:href="#linear-gradient-2"/><linearGradient id="linear-gradient-55" x1="1152.2" y1="915.83" x2="1174.71" y2="981.46" xlink:href="#linear-gradient-2"/><linearGradient id="linear-gradient-56" x1="-1250.68" y1="2066.39" x2="-1235.43" y2="2153.34" gradientTransform="matrix(0.75, -0.66, 0.66, 0.75, 684.94, -1480.43)" xlink:href="#linear-gradient-16"/><linearGradient id="linear-gradient-57" x1="1133.56" y1="922.23" x2="1156.07" y2="987.85" xlink:href="#linear-gradient-2"/><linearGradient id="linear-gradient-58" x1="5892.2" y1="1049.05" x2="5960.26" y2="1332.63" gradientTransform="translate(-4705.66)" xlink:href="#linear-gradient-12"/><linearGradient id="linear-gradient-59" x1="5845.57" y1="1124.07" x2="5884.13" y2="1124.07" gradientTransform="translate(-4705.66)" xlink:href="#linear-gradient-2"/><linearGradient id="linear-gradient-60" x1="5119.69" y1="1079.3" x2="5129.86" y2="1121.68" gradientTransform="matrix(-1, 0, 0, 1, 6333.66, 0)" xlink:href="#linear-gradient-13"/><linearGradient id="linear-gradient-61" x1="1165.76" y1="1078.52" x2="1248.5" y2="1078.52" xlink:href="#linear-gradient"/><linearGradient id="linear-gradient-62" x1="862.46" y1="1357.65" x2="756.03" y2="1598.52" xlink:href="#linear-gradient-13"/><linearGradient id="linear-gradient-63" x1="950.31" y1="1396.46" x2="843.88" y2="1637.34" xlink:href="#linear-gradient-13"/><linearGradient id="linear-gradient-64" x1="874.63" y1="1394.34" x2="874.63" y2="1300.12" xlink:href="#linear-gradient-13"/><linearGradient id="linear-gradient-65" x1="1052.9" y1="1374.76" x2="1032.36" y2="1516.67" xlink:href="#linear-gradient-12"/><linearGradient id="linear-gradient-66" x1="998.74" y1="1496.65" x2="1019.08" y2="1496.65" xlink:href="#linear-gradient-2"/><linearGradient id="linear-gradient-67" x1="1154.64" y1="1389.48" x2="1134.1" y2="1531.39" xlink:href="#linear-gradient-12"/><linearGradient id="linear-gradient-68" x1="946.23" y1="1498.78" x2="930.76" y2="1607.06" xlink:href="#linear-gradient-27"/><linearGradient id="linear-gradient-69" x1="1095.08" y1="1498.37" x2="1119.36" y2="1498.37" xlink:href="#linear-gradient-2"/><linearGradient id="linear-gradient-70" x1="938.37" y1="1531.75" x2="1000.25" y2="1320.8" xlink:href="#linear-gradient-27"/><linearGradient id="linear-gradient-71" x1="973.98" y1="1128.65" x2="937.42" y2="1184.43" xlink:href="#linear-gradient-2"/><linearGradient id="linear-gradient-72" x1="910.68" y1="1224.79" x2="1042.53" y2="1441.26" xlink:href="#linear-gradient-13"/><linearGradient id="linear-gradient-73" x1="1100.96" y1="1107.55" x2="949.08" y2="1225.69" xlink:href="#linear-gradient-12"/><linearGradient id="linear-gradient-74" x1="1062.48" y1="1273.59" x2="1118.57" y2="1273.59" xlink:href="#linear-gradient-2"/><linearGradient id="linear-gradient-75" x1="1006.59" y1="1086.79" x2="968.15" y2="1122.41" xlink:href="#linear-gradient-2"/><linearGradient id="linear-gradient-76" x1="2835.45" y1="1599.32" x2="2889.88" y2="1669.4" gradientTransform="translate(-2069.8 -150.95) rotate(-7.5)" xlink:href="#linear-gradient-16"/><linearGradient id="linear-gradient-77" x1="998.62" y1="1078.19" x2="960.18" y2="1113.82" xlink:href="#linear-gradient-2"/><linearGradient id="linear-gradient-78" x1="3796.08" y1="-7998.27" x2="3646.06" y2="-7853.24" gradientTransform="matrix(-1.39, -0.07, -0.07, 1.39, -6236.51, -215.95)" xlink:href="#linear-gradient-16"/><linearGradient id="linear-gradient-79" x1="1235.24" y1="-7992.43" x2="1085.24" y2="-7847.41" gradientTransform="matrix(0.65, -1.23, -1.23, -0.65, 7293.9, -7927.84)" xlink:href="#linear-gradient-16"/><linearGradient id="linear-gradient-80" x1="1277.85" y1="1418.69" x2="1303.4" y2="1257.99" xlink:href="#linear-gradient-13"/><linearGradient id="linear-gradient-81" x1="1486.21" y1="1516.31" x2="1511.75" y2="1355.61" xlink:href="#linear-gradient-13"/><linearGradient id="linear-gradient-82" x1="1268.36" y1="1417.18" x2="1293.9" y2="1256.48" xlink:href="#linear-gradient-13"/><linearGradient id="linear-gradient-83" x1="1365.46" y1="1434.09" x2="1297.33" y2="1478.47" xlink:href="#linear-gradient-2"/><linearGradient id="linear-gradient-84" x1="1407.62" y1="1467.13" x2="1395.26" y2="1656.67" xlink:href="#linear-gradient-13"/><linearGradient id="linear-gradient-85" x1="1457.8" y1="1395.96" x2="1330.92" y2="1422.84" xlink:href="#linear-gradient-2"/><linearGradient id="linear-gradient-86" x1="1467.31" y1="1347.48" x2="1482.31" y2="1617.5" xlink:href="#linear-gradient-7"/><linearGradient id="linear-gradient-87" x1="1288.33" y1="1459.35" x2="1275.97" y2="1648.9" xlink:href="#linear-gradient-13"/><linearGradient id="linear-gradient-88" x1="1506.9" y1="993.75" x2="1477.64" y2="1147.44" xlink:href="#linear-gradient-16"/><linearGradient id="linear-gradient-89" x1="1494.1" y1="1346" x2="1509.1" y2="1616.01" xlink:href="#linear-gradient-7"/><linearGradient id="linear-gradient-90" x1="1438.19" y1="1110.16" x2="1468.82" y2="1163.29" xlink:href="#linear-gradient-2"/><linearGradient id="linear-gradient-91" x1="1467.89" y1="1069.51" x2="1413.51" y2="1098.26" xlink:href="#linear-gradient-2"/><linearGradient id="linear-gradient-92" x1="-967.74" y1="4844.71" x2="-996.99" y2="4998.4" gradientTransform="translate(-1901.31 -2673.77) rotate(-52.83)" xlink:href="#linear-gradient-16"/><linearGradient id="linear-gradient-93" x1="1469.56" y1="1073.26" x2="1415.18" y2="1102.01" xlink:href="#linear-gradient-2"/><linearGradient id="linear-gradient-94" x1="1507.64" y1="1273.26" x2="1674.24" y2="1273.26" xlink:href="#linear-gradient-2"/><linearGradient id="linear-gradient-95" x1="1433.93" y1="1415.43" x2="1329.06" y2="1444.18" gradientTransform="translate(8.67 -86.8) rotate(-2.83)" xlink:href="#linear-gradient-12"/><linearGradient id="linear-gradient-96" x1="1368.86" y1="1188.35" x2="1294.45" y2="1267" xlink:href="#linear-gradient-12"/><linearGradient id="linear-gradient-97" x1="-9557.06" y1="1644.28" x2="-9555.96" y2="1760.75" gradientTransform="matrix(-1, 0, 0, 1, -7955.28, 0)" xlink:href="#linear-gradient-12"/><linearGradient id="linear-gradient-98" x1="-9585.14" y1="1514.2" x2="-9591.18" y2="1466.96" gradientTransform="matrix(-1, 0, 0, 1, -7955.28, 0)" xlink:href="#linear-gradient-2"/><linearGradient id="linear-gradient-99" x1="-9714.43" y1="1645.76" x2="-9713.33" y2="1762.23" gradientTransform="matrix(-1, 0, 0, 1, -7955.28, 0)" xlink:href="#linear-gradient-12"/><linearGradient id="linear-gradient-100" x1="-9717.23" y1="1530.4" x2="-9723.11" y2="1484.36" gradientTransform="matrix(-1, 0, 0, 1, -7955.28, 0)" xlink:href="#linear-gradient-2"/><linearGradient id="linear-gradient-101" x1="-9758.38" y1="1355.44" x2="-9577.11" y2="1355.44" gradientTransform="matrix(-1, 0, 0, 1, -7955.28, 0)" xlink:href="#linear-gradient-12"/><linearGradient id="linear-gradient-102" x1="-9720.78" y1="1327.63" x2="-9714.19" y2="1314.45" gradientTransform="matrix(-1, 0, 0, 1, -7955.28, 0)" xlink:href="#linear-gradient-13"/><linearGradient id="linear-gradient-103" x1="-9672.71" y1="1228" x2="-9590.18" y2="1228" gradientTransform="matrix(-1, 0, 0, 1, -7955.28, 0)" xlink:href="#linear-gradient-2"/><linearGradient id="linear-gradient-104" x1="-9596.65" y1="1124.53" x2="-9442.51" y2="1124.53" gradientTransform="matrix(-1, 0, 0, 1, -7955.28, 0)" xlink:href="#linear-gradient-2"/><linearGradient id="linear-gradient-105" x1="-9652.14" y1="1038.08" x2="-9598.5" y2="983.04" gradientTransform="matrix(-1, 0, 0, 1, -7955.28, 0)" xlink:href="#linear-gradient-2"/><linearGradient id="linear-gradient-106" x1="-9574.35" y1="948.36" x2="-9641.23" y2="1036.84" gradientTransform="matrix(-1, 0, 0, 1, -7955.28, 0)" xlink:href="#linear-gradient-2"/><linearGradient id="linear-gradient-107" x1="-9625.43" y1="969.71" x2="-9545.54" y2="969.71" gradientTransform="matrix(-1, 0, 0, 1, -7955.28, 0)" xlink:href="#linear-gradient-27"/><linearGradient id="linear-gradient-108" x1="-9672.3" y1="1018.43" x2="-9618.66" y2="963.4" gradientTransform="matrix(-1, 0, 0, 1, -7955.28, 0)" xlink:href="#linear-gradient-2"/><linearGradient id="linear-gradient-109" x1="-9575.19" y1="1268.94" x2="-9687.06" y2="1341.46" gradientTransform="matrix(-1, 0, 0, 1, -7955.28, 0)" xlink:href="#linear-gradient-2"/><linearGradient id="linear-gradient-110" x1="-5769.35" y1="1352.85" x2="-5769.9" y2="1319.91" gradientTransform="matrix(-1, 0, 0, 1, -4129.28, 0)" xlink:href="#linear-gradient-27"/><linearGradient id="linear-gradient-111" x1="242.18" y1="1234.21" x2="316.78" y2="1147.62" gradientTransform="translate(462.73 -34.58) rotate(22.5)" xlink:href="#linear-gradient-27"/><linearGradient id="linear-gradient-112" x1="358.94" y1="1084.46" x2="138.33" y2="1417.73" gradientTransform="translate(903.48 110.55) rotate(45)" xlink:href="#linear-gradient-2"/><linearGradient id="linear-gradient-113" x1="352.36" y1="1094.01" x2="234.89" y2="1291.22" xlink:href="#linear-gradient-7"/><linearGradient id="linear-gradient-114" x1="344.11" y1="1233.7" x2="473.99" y2="1082.95" gradientTransform="translate(1466.23 436.47) rotate(80.78)" xlink:href="#linear-gradient-27"/><linearGradient id="linear-gradient-115" x1="547.37" y1="973.01" x2="163.34" y2="1553.18" gradientTransform="translate(1479.98 458.12) rotate(82.03)" xlink:href="#linear-gradient-2"/><linearGradient id="linear-gradient-116" x1="475.36" y1="1128.74" x2="489.43" y2="966.54" xlink:href="#linear-gradient-7"/><linearGradient id="linear-gradient-117" x1="407.05" y1="1454.42" x2="540.69" y2="1299.31" gradientTransform="translate(1075.69 -4.59) rotate(45)" xlink:href="#linear-gradient-27"/><linearGradient id="linear-gradient-118" x1="616.2" y1="1186.17" x2="221.03" y2="1783.16" gradientTransform="translate(1075.69 -4.59) rotate(45)" xlink:href="#linear-gradient-2"/><linearGradient id="linear-gradient-119" x1="545.37" y1="1339.46" x2="548.19" y2="1171.64" xlink:href="#linear-gradient-7"/><linearGradient id="linear-gradient-120" x1="571.31" y1="1276.4" x2="669.22" y2="1162.75" gradientTransform="translate(1709.16 312.04) rotate(80.78)" xlink:href="#linear-gradient-27"/><linearGradient id="linear-gradient-121" x1="724.55" y1="1079.86" x2="435.01" y2="1517.27" gradientTransform="translate(1486.46 96.26) rotate(67.5)" xlink:href="#linear-gradient-2"/><linearGradient id="linear-gradient-122" x1="715.91" y1="1092.39" x2="561.74" y2="1351.22" xlink:href="#linear-gradient-7"/><linearGradient id="linear-gradient-123" x1="1003.04" y1="321.87" x2="1602.95" y2="321.87" xlink:href="#linear-gradient-13"/><linearGradient id="linear-gradient-124" x1="994.67" y1="359.68" x2="1050.31" y2="359.68" xlink:href="#linear-gradient-7"/><linearGradient id="linear-gradient-125" x1="2474.33" y1="1363.76" x2="2541.62" y2="1363.76" gradientTransform="translate(-1781.98 151.69) rotate(-25.51)" xlink:href="#linear-gradient"/><linearGradient id="linear-gradient-126" x1="1031.52" y1="302.3" x2="1106.16" y2="302.3" xlink:href="#linear-gradient-7"/></defs><title>20943546 [Converted]</title><g id="Illustration"><path d="M2229.61,1069.72c-33.4-38.38-83-60.94-119.23-97-58.46-58.18-74.74-144.22-72.4-224.58s20.45-160,19.12-240.37-26.07-166-92-216.5C1894.24,237,1791,236,1705,264.46s-159.83,82-235,130.83c-39.36,25.56-86.23,51.15-132.12,38.81-45.26-12.17-70.8-56-95.91-93.72-29.31-44.08-67.67-86.08-119.78-102.54-102.81-32.47-115.7,4.71-120.62,34.21-7.36,44.2-18.37,76.18-55.68,90.3s-80,7.89-117.58-5.52S756.11,323.25,719,308.68c-59.32-23.3-144.87-76.91-206.3-59.2S387.26,342.6,372.06,401.8c-25.42,99,84.83,222.11,46.62,317.34C392.32,784.82,318.39,819.82,268.75,872c-95.66,100.55-89.44,264.68-9.78,377.09S476.59,1426.81,616.64,1453s284.33,17.92,426.9,11.53c224-10,448.47-15.15,672.67-8.72,92.71,2.65,186.42,7.21,277.42-9.82s180.78-58.47,234.1-130.51S2288.68,1137.59,2229.61,1069.72Z" transform="translate(-198.11 -96)" fill="url(#linear-gradient)"/><path d="M547.63,450.63a4.41,4.41,0,0,0-8.7.13c-3.66,24.75-10.66,56.33-23.77,77C490.85,566,446.68,705.3,568,774.77S719.05,881,718.15,1014.4c-.82,121.92,6.52,382.1,7.78,426a6.54,6.54,0,0,0,6.55,6.34h0a6.54,6.54,0,0,0,6.54-6.51c.16-57.06,1-471.82-9.44-572.32C713.1,708.63,578.82,627.05,547.63,450.63Z" transform="translate(-198.11 -96)" fill="#bdd0fb"/><path d="M549.7,556a80.41,80.41,0,0,0-2.82,12.46c-.39,2.12-.59,4.27-.8,6.42s-.29,4.3-.39,6.45a114.09,114.09,0,0,0,2,25.64c3.32,16.85,10.73,32.67,20.67,46.66,1.26,1.74,2.41,3.56,3.76,5.23l4.2,4.92,4.2,4.92,4.5,4.73c6.11,6.23,12.57,12.16,19.2,18,13.25,11.63,27.15,22.82,40.26,35.11a254.08,254.08,0,0,1,35.79,40.52,237.07,237.07,0,0,1,14,23.24l3,6.08q1.53,3,2.85,6.14l2.7,6.21,2.43,6.32c1.7,4.18,3,8.5,4.46,12.75s2.55,8.63,3.77,13c1,4.37,2.19,8.72,3.08,13.11s1.87,8.78,2.52,13.22a414.36,414.36,0,0,1,5.37,53.34,2.38,2.38,0,0,1-4.75.26c-2.63-35.2-8.35-70.41-21.27-103L696,811.62l-2.71-6c-.87-2-1.83-4-2.84-5.89l-3-5.83a228,228,0,0,0-13.83-22.16,256.18,256.18,0,0,0-16.43-20.34c-5.83-6.5-12.09-12.63-18.53-18.61-12.87-12-26.73-23-40.25-34.71-6.76-5.86-13.42-11.91-19.79-18.33l-4.71-4.89-4.43-5.24-4.42-5.24c-1.42-1.79-2.65-3.73-4-5.6-10.5-15-18.2-32.24-21-50.43l-.93-6.83c-.25-2.28-.3-4.58-.45-6.86a63.14,63.14,0,0,1-.08-6.88A65.35,65.35,0,0,1,539,581c.24-2.28.39-4.56.81-6.82s.69-4.52,1.23-6.74a74.56,74.56,0,0,1,4-13.26,2.52,2.52,0,0,1,4.74,1.71Z" transform="translate(-198.11 -96)" fill="#dce5fe"/><path d="M503.46,831.17a5.69,5.69,0,0,0-10.65.9c-12.48,46.43-38.26,185,75.67,250.62,138.06,79.48,141.39,43.53,158.61,183.47,14.81,120.45,19.87,193.69,21,211.76a4.71,4.71,0,0,0,4.7,4.41h0a4.7,4.7,0,0,0,4.7-4.86c-1.3-37.92-10.79-288.52-37.89-411.1C671.38,848.35,558.5,952.16,503.46,831.17Z" transform="translate(-198.11 -96)" fill="#91b3fa"/><path d="M506.2,856.56a86.32,86.32,0,0,0,7.59,22.79,123.13,123.13,0,0,0,12.71,20.39c9.8,12.7,22.06,23.33,35.44,32.2,6.62,4.61,13.76,8.22,20.92,12.15l11,5.9c3.64,2,7.21,4.21,10.82,6.31a293,293,0,0,1,40.68,29.43,247.85,247.85,0,0,1,34,37.09l7.13,10.38c1.24,1.69,2.21,3.56,3.29,5.36L693,1044l3.17,5.44,2.77,5.64c1.8,3.78,3.73,7.5,5.43,11.32,3,7.8,6.51,15.42,8.79,23.47,1.25,4,2.57,7.94,3.66,12l2.87,12.17,1.43,6.07,1,6.15,2.05,12.3c.75,4.09.95,8.25,1.41,12.37l1.2,12.38a1.63,1.63,0,0,1-3.23.41l0-.11c-1.27-8.12-2.31-16.27-3.76-24.33l-2.49-12-1.26-6-1.64-5.91-3.27-11.81c-1.21-3.9-2.7-7.7-4-11.57-2.4-7.81-6-15.14-9.08-22.66-1.74-3.68-3.7-7.24-5.54-10.86l-2.8-5.41-3.19-5.19-3.19-5.18c-1.08-1.71-2.06-3.5-3.3-5.1l-7.11-9.86a249.8,249.8,0,0,0-33.24-35.34A303.21,303.21,0,0,0,600.12,964c-3.53-2-7-4.15-10.57-6.13l-10.81-5.72c-7.28-4-14.83-8-21.72-12.91-13.93-9.56-26.56-21.33-36.23-35.33A111.62,111.62,0,0,1,509,881.43a97.49,97.49,0,0,1-3.74-12.12,59.91,59.91,0,0,1-1.78-12.62,1.39,1.39,0,0,1,2.75-.28Z" transform="translate(-198.11 -96)" fill="#dce5fe"/><path d="M735,1482.33a4.74,4.74,0,0,0,4.69-5.53c-4.88-28.83-33.44-160.68-148.46-161.73-101.9-.93-163.74,50-185.29,71.49a7.11,7.11,0,0,0,3.1,11.88c13.92,3.83,37.08,13.14,51.94,34.71,22.41,32.52,80.5,27.42,116.69-17.29,35.86-44.3,125.18-70.83,152.67,62.64a4.76,4.76,0,0,0,4.66,3.83Z" transform="translate(-198.11 -96)" fill="#bdd0fb"/><path d="M453.36,1371.65A174.23,174.23,0,0,1,478.54,1354c4.42-2.59,8.94-5,13.55-7.3s9.27-4.43,14-6.35a213.24,213.24,0,0,1,29.36-9.67,198.81,198.81,0,0,1,30.61-4.94,158.14,158.14,0,0,1,31.07.39,146.41,146.41,0,0,1,30.38,6.47l3.7,1.18,3.61,1.43c2.39,1,4.82,1.86,7.18,2.91a140.29,140.29,0,0,1,13.73,7.11,162.17,162.17,0,0,1,25,17.83,1.44,1.44,0,0,1-1.71,2.3l-.07-.05c-8.36-5.58-16.67-11.18-25.73-15.36-4.4-2.33-9.09-4-13.63-6-2.32-.88-4.69-1.6-7-2.42l-3.51-1.18-3.59-.94a147.53,147.53,0,0,0-29.1-5.13c-2.46-.14-4.91-.46-7.38-.46l-7.39-.12c-4.93.17-9.86.3-14.77.81-19.69,1.73-39,6.84-57.69,13.63a328,328,0,0,0-54.08,25.75l-.06,0a1.43,1.43,0,0,1-1.67-2.32Z" transform="translate(-198.11 -96)" fill="#dce5fe"/><path d="M962.58,153.52A5.64,5.64,0,0,0,952,151c-13.47,23.85-43.77,64.52-104.42,94-91,44.16-254.23,135.5-156.87,335C792,787.49,756,932.4,763,1004.94c6.45,67.19,13.25,413.34,14.23,464.16a6.35,6.35,0,0,0,6.36,6.24h0a6.37,6.37,0,0,0,6.37-6.53c-1.41-56.06-11.42-455.73-11.61-519.72-.19-68.84-17.22-304.41,44.31-390.32C882.19,475.66,972.05,369,962.58,153.52Z" transform="translate(-198.11 -96)" fill="#bdd0fb"/><path d="M927.77,214.69c-6.33,8.89-13.17,17.33-20.29,25.56s-14.53,16.2-22.12,24L879.6,270l-5.88,5.66c-3.9,3.81-7.91,7.5-12,11.15Q849.6,297.76,836.85,308c-4.27,3.39-8.65,6.65-13,10s-8.84,6.41-13.25,9.62c-8.83,6.2-17.39,12.38-25.48,19.27-16.2,13.62-30.37,29.51-41,47.6A158.4,158.4,0,0,0,731,423a195.28,195.28,0,0,0-7.7,30.65,227.55,227.55,0,0,0-3,31.67l-.12,8c0,2.66.12,5.33.16,8,.06,5.33.49,10.67.8,16,3.36,42.73,13.8,84.88,26.39,126.17a1.13,1.13,0,0,1-2.14.73q-11.37-30.46-19.73-62A421.15,421.15,0,0,1,713.51,518c-2.24-21.74-2.49-43.87.7-65.77a194.57,194.57,0,0,1,7.6-32.35,168.16,168.16,0,0,1,13.6-30.47c11-19.44,26.15-36.26,42.94-50.55,8.37-7.18,17.31-13.76,26.2-20,4.36-3.11,8.79-6.13,13.1-9.32s8.61-6.39,12.83-9.69,8.51-6.54,12.67-9.94,8.37-6.72,12.42-10.24c8.21-6.92,16.39-13.91,24.28-21.21s15.81-14.62,23.53-22.13S918.7,221.2,926,213.29l0,0a1.13,1.13,0,0,1,1.75,1.42Z" transform="translate(-198.11 -96)" fill="#dce5fe"/><path d="M1107.06,880.81H981.42a13.28,13.28,0,0,1-13.28-13L956.82,316.52A13.28,13.28,0,0,1,971.06,303l137,9.88a13.28,13.28,0,0,1,12.33,13.25V867.52A13.29,13.29,0,0,1,1107.06,880.81Z" transform="translate(-198.11 -96)" fill="#91b3fa"/><path d="M987.7,527.7l2.72,65.3a11.6,11.6,0,0,0,11.42,11.11l87.74,1.22a11.59,11.59,0,0,0,11.76-11.59V528.48a11.6,11.6,0,0,0-11.43-11.59l-90.47-1.26A11.58,11.58,0,0,0,987.7,527.7Z" transform="translate(-198.11 -96)" fill="#7d97f4"/><path d="M1089.91,615.26l-86.37-1.2a11.58,11.58,0,0,0-11.74,12.07l2.72,65.3a11.59,11.59,0,0,0,11.42,11.1l83.64,1.17a11.59,11.59,0,0,0,11.76-11.59V626.85A11.6,11.6,0,0,0,1089.91,615.26Z" transform="translate(-198.11 -96)" fill="#7d97f4"/><path d="M1101.34,397V347.86a11.6,11.6,0,0,0-10.1-11.49l-98.48-12.8a11.59,11.59,0,0,0-13.08,12l2.53,60.6a11.6,11.6,0,0,0,11.42,11.11l95.95,1.34A11.59,11.59,0,0,0,1101.34,397Z" transform="translate(-198.11 -96)" fill="#7d97f4"/><path d="M983.59,429.27l2.72,65.3a11.6,11.6,0,0,0,11.42,11.11l91.85,1.28a11.59,11.59,0,0,0,11.76-11.59V430.11a11.6,11.6,0,0,0-11.43-11.59l-94.58-1.32A11.59,11.59,0,0,0,983.59,429.27Z" transform="translate(-198.11 -96)" fill="#7d97f4"/><path d="M995.91,724.56l2,47.51a11.59,11.59,0,0,0,11.58,11.11h80.28a11.59,11.59,0,0,0,11.59-11.59V725.22a11.6,11.6,0,0,0-11.43-11.59l-82.26-1.14A11.58,11.58,0,0,0,995.91,724.56Z" transform="translate(-198.11 -96)" fill="#7d97f4"/><path d="M1116.27,873.54,999.08,918.82A13.29,13.29,0,0,1,982,911.47L772.77,401.32a13.28,13.28,0,0,1,8.4-17.75l131.31-40.14a13.28,13.28,0,0,1,16.28,7.92l195.12,505A13.28,13.28,0,0,1,1116.27,873.54Z" transform="translate(-198.11 -96)" fill="#91b3fa"/><path d="M877.68,587.18l26.07,59.93a11.58,11.58,0,0,0,14.65,6.24l82.29-30.48a11.58,11.58,0,0,0,6.79-15L984,547a11.59,11.59,0,0,0-14.84-6.69l-84.84,31.43A11.58,11.58,0,0,0,877.68,587.18Z" transform="translate(-198.11 -96)" fill="url(#linear-gradient-2)"/><path d="M1004.58,632l-81,30a11.58,11.58,0,0,0-6.6,15.49l26.07,59.93a11.6,11.6,0,0,0,14.65,6.25l78.45-29.06a11.58,11.58,0,0,0,6.78-15l-23.52-60.88A11.58,11.58,0,0,0,1004.58,632Z" transform="translate(-198.11 -96)" fill="url(#linear-gradient-3)"/><path d="M936.58,424.31l-17.71-45.84a11.6,11.6,0,0,0-13.56-7.08l-96.48,23.55A11.58,11.58,0,0,0,801,410.82l24.2,55.62a11.58,11.58,0,0,0,14.65,6.24l90-33.33A11.59,11.59,0,0,0,936.58,424.31Z" transform="translate(-198.11 -96)" fill="url(#linear-gradient-4)"/><path d="M838.37,496.85l26.08,59.92A11.59,11.59,0,0,0,879.1,563l86.14-31.91a11.59,11.59,0,0,0,6.79-15L948.51,455.2a11.59,11.59,0,0,0-14.84-6.7L845,481.35A11.6,11.6,0,0,0,838.37,496.85Z" transform="translate(-198.11 -96)" fill="url(#linear-gradient-5)"/><path d="M956.28,767.85l19,43.6a11.59,11.59,0,0,0,14.81,6.19l74.88-28.93a11.59,11.59,0,0,0,6.63-15l-16.7-43.25a11.6,11.6,0,0,0-14.84-6.69l-77.15,28.58A11.59,11.59,0,0,0,956.28,767.85Z" transform="translate(-198.11 -96)" fill="url(#linear-gradient-6)"/><path d="M1123.59,860.52l-80.28,96.64a13.27,13.27,0,0,1-18.49,1.9L593.53,615.51a13.28,13.28,0,0,1-1.31-19.59l95.11-99a13.29,13.29,0,0,1,18.08-1l416.45,345.94A13.29,13.29,0,0,1,1123.59,860.52Z" transform="translate(-198.11 -96)" fill="#91b3fa"/><path d="M775.7,726.7l52,39.63a11.6,11.6,0,0,0,15.84-1.68l57-66.72a11.59,11.59,0,0,0-1.4-16.44l-50.2-41.7a11.6,11.6,0,0,0-16.22,1.38L773.92,710A11.59,11.59,0,0,0,775.7,726.7Z" transform="translate(-198.11 -96)" fill="url(#linear-gradient-7)"/><path d="M908.37,704l-56.11,65.66A11.59,11.59,0,0,0,854,786.44l52,39.63a11.59,11.59,0,0,0,15.84-1.69l54.34-63.59a11.59,11.59,0,0,0-1.41-16.45l-50.19-41.69A11.59,11.59,0,0,0,908.37,704Z" transform="translate(-198.11 -96)" fill="url(#linear-gradient-8)"/><path d="M747.78,555.77,710,524.37a11.59,11.59,0,0,0-15.3.43l-72.77,67.57a11.59,11.59,0,0,0,.86,17.71L671,646.86a11.59,11.59,0,0,0,15.84-1.69l62.34-72.95A11.6,11.6,0,0,0,747.78,555.77Z" transform="translate(-198.11 -96)" fill="url(#linear-gradient-9)"/><path d="M697.37,667l52,39.63a11.59,11.59,0,0,0,15.84-1.69l59.68-69.83a11.6,11.6,0,0,0-1.4-16.45l-50.2-41.7A11.59,11.59,0,0,0,757,578.32l-61.45,71.9A11.59,11.59,0,0,0,697.37,667Z" transform="translate(-198.11 -96)" fill="url(#linear-gradient-10)"/><path d="M932.37,846.18,970.19,875a11.58,11.58,0,0,0,15.94-1.81l51.3-61.75a11.59,11.59,0,0,0-1.51-16.32l-35.67-29.63A11.58,11.58,0,0,0,984,766.89l-53.45,62.54A11.6,11.6,0,0,0,932.37,846.18Z" transform="translate(-198.11 -96)" fill="url(#linear-gradient-11)"/><path d="M1808.69,1452.88a6,6,0,0,1-5-5.31c-3-28.8-16.8-188.09,27.1-272.66,48.39-93.21,126.44-179.94,88.31-402-21.61-125.8-8.05-194.38-1.17-218.16a4,4,0,0,1,7.55-.61C1945.34,596.57,2028,775.3,2040.88,830.6c14.66,62.91,24.35,185.29-74.78,241.2-97.56,55-185.66,194.8-150.44,374a6,6,0,0,1-7,7.07Z" transform="translate(-198.11 -96)" fill="#bdd0fb"/><path d="M1640.74,98.41a3.81,3.81,0,0,0-7.31.85c-8.68,60.87-32.45,279.12,55.24,378.27,102.47,115.85,177,142.62,153.07,335.93-23.69,191.29-87.59,530.48-60.12,631.65a5.09,5.09,0,0,0,4,3.69h0a5.06,5.06,0,0,0,5.94-5.27c-1.72-29.84-7.54-158.93,12.52-276.57,22.86-134,121.65-467.81,75.69-728.22C1836.73,194.71,1677.78,189.24,1640.74,98.41Z" transform="translate(-198.11 -96)" fill="#bdd0fb"/><path d="M1681.72,203.13a320.2,320.2,0,0,1,24.7,21.51c7.92,7.51,15.53,15.35,22.92,23.39s14.47,16.38,21.44,24.8c3.47,4.22,6.75,8.59,10.14,12.89s6.53,8.77,9.8,13.15a579.58,579.58,0,0,1,35.18,55.41l4,7.16,3.81,7.28c2.48,4.88,5.16,9.65,7.45,14.63l7.08,14.83,6.54,15.07a568.39,568.39,0,0,1,21.7,62c1.57,5.25,2.72,10.61,4.1,15.91l2,8c.62,2.66,1.12,5.36,1.68,8,1.08,5.37,2.22,10.72,3.24,16.1l2.5,16.23c.92,5.4,1.42,10.86,2,16.3s1.25,10.87,1.56,16.33c.57,10.93,1.31,21.84,1.06,32.77.31,21.86-1.67,43.66-4.36,65.26a1.77,1.77,0,0,1-3.53-.35v-.05c3.29-43.12,1.89-86.5-5.48-128.89L1858.38,525l-3.51-15.74c-.6-2.62-1.14-5.25-1.8-7.85l-2.12-7.78c-1.46-5.17-2.7-10.4-4.35-15.52a563.13,563.13,0,0,0-22-60.54c-16.89-39.54-38.34-77-62.7-112.5-3.08-4.41-6.1-8.87-9.25-13.24s-6.31-8.72-9.57-13q-9.66-13-19.88-25.5c-13.58-16.74-27.83-33.05-43-48.45l0,0a1.16,1.16,0,0,1,1.54-1.73Z" transform="translate(-198.11 -96)" fill="#dce5fe"/><path d="M1830.08,1456.66a7.22,7.22,0,0,1-5.81-5.6c-5.44-25.55-26.15-148,57.67-223.12,87.41-78.34,151.26-83.51,168.33-132.57a3.12,3.12,0,0,1,6,.28c9.77,44,33.9,195.92-82.35,254.5-115.35,58.13-133.5,84.8-135.43,100.39a7.19,7.19,0,0,1-8.42,6.12Z" transform="translate(-198.11 -96)" fill="#91b3fa"/><path d="M2044.23,1136.87c-3.93,16.16-11,31.33-19.93,45.41a160.27,160.27,0,0,1-15,20,158.92,158.92,0,0,1-38.63,32.2,173.09,173.09,0,0,1-22.77,11l-5.93,2.22-5.61,2c-1.87.64-3.69,1.4-5.51,2.16s-3.67,1.47-5.43,2.35a142.22,142.22,0,0,0-20.62,11.4c-26.44,17.11-46,43.61-57,73.5-11.28,29.89-15.2,62.49-15.31,95a1.47,1.47,0,0,1-1.47,1.47,1.49,1.49,0,0,1-1.47-1.36c-.64-8.17-1.09-16.38-1.06-24.61s.37-16.46,1.06-24.7a222.7,222.7,0,0,1,3.51-24.58,193.63,193.63,0,0,1,6.36-24.14c5.32-15.81,12.71-31.15,22.77-44.75a142.86,142.86,0,0,1,36.41-35,153.89,153.89,0,0,1,22.09-12.37c1.89-.95,3.86-1.71,5.79-2.54s3.89-1.64,5.87-2.34l11.44-4.16a161.16,161.16,0,0,0,41.06-23.09,180.17,180.17,0,0,0,17.7-15.82A196.57,196.57,0,0,0,2018.1,1178a190,190,0,0,0,23.82-41.78l0-.08a1.2,1.2,0,0,1,2.28.73Z" transform="translate(-198.11 -96)" fill="#dce5fe"/><path d="M668.44,1064.13s132.26,348.8,174,421.37c48.51,84.23,190.17,30.55,183.12-39.94S853,1083.71,853,1083.71Z" transform="translate(-198.11 -96)" fill="url(#linear-gradient-12)"/><polygon points="649.04 714.04 1471.07 429.03 1462.44 1200.31 626.57 1013.81 649.04 714.04" fill="url(#linear-gradient-13)"/><ellipse cx="1471.84" cy="816.91" rx="80.76" ry="396.37" fill="url(#linear-gradient-14)"/><path d="M1676.08,1282.17c-7.3-7.42-23.2-36.06-36.83-110.12-13.18-71.56-20.43-164.39-20.43-261.38s7.25-189.81,20.43-261.38c13.63-74.06,29.53-102.7,36.83-110.12,7.3,7.42,23.2,36.06,36.84,110.12,13.17,71.57,20.43,164.39,20.43,261.38s-7.26,189.82-20.43,261.38C1699.28,1246.11,1683.38,1274.75,1676.08,1282.17Z" transform="translate(-198.11 -96)" fill="url(#linear-gradient-15)"/><g clip-path="url(#clip-path)"><path d="M1779.6,907.72c0,67.35-36.28,121.94-108.09,121.94s-130-54.59-130-121.94,58.21-121.94,130-121.94S1779.6,840.37,1779.6,907.72Z" transform="translate(-198.11 -96)" fill="url(#linear-gradient-16)"/></g><path d="M714.56,793.46c38.67-4.49,94.13-6.11,154.08,7.62-19.75,103.19-16.77,210.74,6.07,322.1H705.61A54.81,54.81,0,0,1,651.45,1077c-8.42-53.38-18.73-143.11-7.74-215.17A81.09,81.09,0,0,1,714.56,793.46Z" transform="translate(-198.11 -96)" fill="url(#linear-gradient-17)"/><path d="M816.05,872.49H684.3a12,12,0,0,1-10.09-18.55,3.39,3.39,0,0,1,5.69,3.69,5.24,5.24,0,0,0,4.4,8.08H816.05a5.25,5.25,0,0,0,5.24-5.24V851.1a5.25,5.25,0,0,0-5.24-5.24H683.32a3.39,3.39,0,0,1,0-6.78H816.05a12,12,0,0,1,12,12v9.37A12,12,0,0,1,816.05,872.49Z" transform="translate(-198.11 -96)" fill="#bdd0fb"/><path d="M804.3,930.84H672.55a12,12,0,0,1-10.09-18.55,3.39,3.39,0,0,1,5.69,3.69,5.24,5.24,0,0,0,4.4,8.08H804.3a5.25,5.25,0,0,0,5.24-5.24v-9.37a5.25,5.25,0,0,0-5.24-5.24H671.57a3.39,3.39,0,0,1,0-6.78H804.3a12,12,0,0,1,12,12v9.37A12,12,0,0,1,804.3,930.84Z" transform="translate(-198.11 -96)" fill="#bdd0fb"/><path d="M966.59,789.16a3.38,3.38,0,0,1-1-6.61l622.59-198.13a3.39,3.39,0,0,1,2.06,6.46L967.62,789A3.35,3.35,0,0,1,966.59,789.16Z" transform="translate(-198.11 -96)" fill="url(#linear-gradient-18)"/><path d="M882.4,823.58a3.38,3.38,0,0,1-1.28-6.52l32-13.1a3.39,3.39,0,1,1,2.56,6.27l-32,13.1A3.39,3.39,0,0,1,882.4,823.58Z" transform="translate(-198.11 -96)" fill="url(#linear-gradient-19)"/><path d="M816.05,999.18H684.3a12,12,0,0,1-10.09-18.55,3.39,3.39,0,0,1,5.69,3.68,5.25,5.25,0,0,0,4.4,8.09H816.05a5.25,5.25,0,0,0,5.24-5.24v-9.38a5.24,5.24,0,0,0-5.24-5.23H683.32a3.39,3.39,0,0,1,0-6.78H816.05a12,12,0,0,1,12,12v9.38A12,12,0,0,1,816.05,999.18Z" transform="translate(-198.11 -96)" fill="#bdd0fb"/><path d="M828.39,1075H696.64a12,12,0,0,1-10.09-18.54,3.39,3.39,0,1,1,5.69,3.67,5.23,5.23,0,0,0,4.4,8.09H828.39a5.25,5.25,0,0,0,5.24-5.24v-9.37a5.25,5.25,0,0,0-5.24-5.24H695.66a3.39,3.39,0,1,1,0-6.78H828.39a12,12,0,0,1,12,12V1063A12,12,0,0,1,828.39,1075Z" transform="translate(-198.11 -96)" fill="#bdd0fb"/><path d="M946.06,1487.44A85.84,85.84,0,0,1,867.9,1437L762.64,1203.14a3.39,3.39,0,0,1,6.18-2.78l105.26,233.85a78.08,78.08,0,0,0,55.1,44.62,76.45,76.45,0,0,0,67.3-17.21c1-.87,2-1.76,3-2.68a3.39,3.39,0,1,1,4.57,5c-1,1-2.07,1.87-3.1,2.77A83,83,0,0,1,946.06,1487.44Z" transform="translate(-198.11 -96)" fill="#bdd0fb"/><path d="M750.17,1170.56a3.38,3.38,0,0,1-3.09-2l-11.75-26.09a3.39,3.39,0,1,1,6.18-2.78l11.74,26.09a3.39,3.39,0,0,1-3.08,4.78Z" transform="translate(-198.11 -96)" fill="#bdd0fb"/><path d="M1760.35,904.21a3.4,3.4,0,0,1-3.38-3.15c-2.34-33-13.78-57.6-34-73.12-35-26.84-84.85-17.62-85.35-17.52a3.39,3.39,0,0,1-1.28-6.65c2.16-.42,53.4-9.88,90.76,18.79,21.82,16.76,34.14,43,36.62,78a3.38,3.38,0,0,1-3.14,3.62Z" transform="translate(-198.11 -96)" fill="url(#linear-gradient-20)"/><path d="M2037.47,691.11a2.26,2.26,0,0,1-.86-4.35c2.77-1.13,5.52-2.34,8.17-3.58a2.26,2.26,0,1,1,1.91,4.1c-2.72,1.27-5.53,2.5-8.37,3.66A2.15,2.15,0,0,1,2037.47,691.11Z" transform="translate(-198.11 -96)" fill="#7d97f4"/><path d="M1963.31,705.31h0c-6,0-12.08-.38-18-1a2.26,2.26,0,0,1,.46-4.5c5.83.6,11.76.93,17.63,1a2.26,2.26,0,0,1,0,4.51Zm29-1.94a2.26,2.26,0,0,1-.32-4.49c5.81-.83,11.64-1.94,17.35-3.31a2.26,2.26,0,0,1,1,4.39c-5.84,1.4-11.82,2.54-17.76,3.39A1.77,1.77,0,0,1,1992.28,703.37Zm-75.39-4.21a2.22,2.22,0,0,1-.57-.07c-5.8-1.52-11.61-3.33-17.26-5.4a2.26,2.26,0,1,1,1.54-4.24c5.52,2,11.2,3.79,16.86,5.27a2.26,2.26,0,0,1-.57,4.44Zm-43.49-17.34a2.24,2.24,0,0,1-1.09-.28c-5.26-2.89-10.45-6.07-15.42-9.44a2.26,2.26,0,0,1,2.53-3.74c4.86,3.3,9.93,6.4,15.07,9.22a2.26,2.26,0,0,1-1.09,4.24Zm-38-27.41a2.28,2.28,0,0,1-1.54-.6c-4.4-4.08-8.67-8.42-12.67-12.9a2.26,2.26,0,1,1,3.37-3c3.91,4.37,8.07,8.61,12.38,12.6a2.26,2.26,0,0,1-1.54,3.91Zm-30.17-35.78a2.25,2.25,0,0,1-1.89-1c-3.29-5-6.37-10.29-9.15-15.6a2.26,2.26,0,1,1,4-2.1c2.72,5.18,5.72,10.31,8.93,15.23a2.26,2.26,0,0,1-.66,3.13A2.31,2.31,0,0,1,1805.27,618.63Zm-20.52-42.07a2.26,2.26,0,0,1-2.14-1.53c-1.94-5.67-3.64-11.51-5-17.36a2.26,2.26,0,1,1,4.39-1c1.38,5.7,3,11.41,4.93,17a2.26,2.26,0,0,1-1.4,2.87A2.37,2.37,0,0,1,1784.75,576.56Zm-9.61-45.81a2.26,2.26,0,0,1-2.25-2.06l0-.51c-.44-5.32-.66-10.71-.66-16V510.6a2.26,2.26,0,0,1,2.26-2.24h0a2.26,2.26,0,0,1,2.23,2.28v1.54c0,5.17.21,10.43.64,15.63l0,.48a2.26,2.26,0,0,1-2.05,2.45Zm1.76-46.8a2.17,2.17,0,0,1-.36,0,2.27,2.27,0,0,1-1.87-2.6c1-5.94,2.22-11.89,3.74-17.7a2.26,2.26,0,0,1,4.37,1.15c-1.48,5.66-2.71,11.48-3.65,17.28A2.25,2.25,0,0,1,1776.9,484Z" transform="translate(-198.11 -96)" fill="#7d97f4"/><path d="M1790.1,438.91a2.32,2.32,0,0,1-.89-.18,2.26,2.26,0,0,1-1.18-3c1.2-2.76,2.49-5.55,3.84-8.3a2.26,2.26,0,1,1,4.05,2c-1.32,2.69-2.58,5.41-3.74,8.1A2.26,2.26,0,0,1,1790.1,438.91Z" transform="translate(-198.11 -96)" fill="#7d97f4"/><path d="M1899.4,335.62a2.26,2.26,0,0,1-.78-4.38c2.85-1.05,5.77-2,8.66-2.94a2.26,2.26,0,1,1,1.35,4.31c-2.83.88-5.67,1.85-8.45,2.87A2.38,2.38,0,0,1,1899.4,335.62Z" transform="translate(-198.11 -96)" fill="#7d97f4"/><path d="M2147.09,571.76a2.24,2.24,0,0,1-.68-.1,2.26,2.26,0,0,1-1.48-2.83c1.73-5.51,3.22-11.16,4.43-16.81a2.28,2.28,0,0,1,2.69-1.73,2.25,2.25,0,0,1,1.73,2.68c-1.24,5.78-2.77,11.57-4.54,17.21A2.26,2.26,0,0,1,2147.09,571.76Zm8.36-45.3h-.14a2.26,2.26,0,0,1-2.12-2.39c.23-3.79.35-7.64.35-11.46q0-3-.09-5.92a2.26,2.26,0,0,1,2.18-2.33,2.24,2.24,0,0,1,2.33,2.19c.07,2,.1,4,.1,6.06,0,3.91-.12,7.85-.36,11.73A2.26,2.26,0,0,1,2155.45,526.46Zm-2.74-46a2.27,2.27,0,0,1-2.22-1.86c-1-5.69-2.33-11.39-3.88-16.93a2.26,2.26,0,0,1,4.36-1.21c1.58,5.68,2.91,11.51,4,17.34a2.26,2.26,0,0,1-1.82,2.62A1.9,1.9,0,0,1,2152.71,480.47Zm-13.62-44a2.28,2.28,0,0,1-2.07-1.33c-2.36-5.26-5-10.48-7.85-15.5a2.26,2.26,0,0,1,3.94-2.23c2.91,5.15,5.62,10.49,8,15.87a2.26,2.26,0,0,1-1.14,3A2.31,2.31,0,0,1,2139.09,436.48Zm-23.84-39.4a2.26,2.26,0,0,1-1.78-.87c-3.56-4.54-7.38-9-11.34-13.16a2.26,2.26,0,0,1,3.28-3.1c4.06,4.29,8,8.83,11.62,13.47a2.26,2.26,0,0,1-1.78,3.66Zm-32.59-32.56a2.22,2.22,0,0,1-1.39-.48c-4.54-3.55-9.3-6.94-14.16-10.07a2.26,2.26,0,0,1,2.45-3.8c5,3.2,9.85,6.68,14.5,10.32a2.26,2.26,0,0,1-1.4,4Zm-39.42-23.83a2.31,2.31,0,0,1-.92-.2c-5.26-2.37-10.69-4.52-16.16-6.4a2.26,2.26,0,0,1,1.46-4.27c5.6,1.92,11.17,4.12,16.55,6.55a2.26,2.26,0,0,1-.93,4.32Zm-44-13.68a2.69,2.69,0,0,1-.4,0c-5.68-1-11.47-1.81-17.22-2.3a2.28,2.28,0,0,1-2.06-2.45,2.24,2.24,0,0,1,2.45-2.05c5.89.51,11.82,1.3,17.63,2.35a2.26,2.26,0,0,1-.4,4.48Zm-63.47-.76a2.26,2.26,0,0,1-.34-4.49c4.6-.72,9.28-1.27,13.9-1.65,1.26-.1,2.53-.19,3.79-.27a2.26,2.26,0,0,1,.28,4.51c-1.23.07-2.46.16-3.7.26-4.51.38-9.08.92-13.58,1.61A2.07,2.07,0,0,1,1935.77,326.25Z" transform="translate(-198.11 -96)" fill="#7d97f4"/><path d="M2132.27,606.42a2.26,2.26,0,0,1-2-3.35c1.44-2.6,2.82-5.27,4.12-7.92a2.26,2.26,0,0,1,4.06,2c-1.33,2.72-2.75,5.44-4.22,8.11A2.27,2.27,0,0,1,2132.27,606.42Z" transform="translate(-198.11 -96)" fill="#7d97f4"/><path d="M2083.61,598.5a2.3,2.3,0,0,0,.3-2.64l-13.43-24.39a121.55,121.55,0,0,0,13.22-37l25.82-10.38a2.3,2.3,0,0,0,1.44-2.24l-1.68-33.36a2.28,2.28,0,0,0-1.64-2.09l-26.74-7.74a121.37,121.37,0,0,0-16.85-35.52L2075,417.51a2.31,2.31,0,0,0-.57-2.6l-24.78-22.41a2.28,2.28,0,0,0-2.64-.31l-24.39,13.44a121.29,121.29,0,0,0-37-13.22l-10.38-25.83a2.3,2.3,0,0,0-2.24-1.43l-33.37,1.67a2.29,2.29,0,0,0-2.08,1.65l-7.74,26.74a121.37,121.37,0,0,0-35.52,16.85l-25.61-10.93a2.29,2.29,0,0,0-2.6.57l-22.41,24.77a2.29,2.29,0,0,0-.31,2.64l13.44,24.4a121.29,121.29,0,0,0-13.22,37l-25.83,10.38a2.29,2.29,0,0,0-1.43,2.24l1.67,33.36a2.3,2.3,0,0,0,1.65,2.09l26.74,7.74a121.31,121.31,0,0,0,16.85,35.51l-10.93,25.62a2.28,2.28,0,0,0,.57,2.6l24.77,22.41a2.28,2.28,0,0,0,2.64.3l24.4-13.43a121.55,121.55,0,0,0,37,13.22L1952,658.39a2.28,2.28,0,0,0,2.23,1.44l33.37-1.68a2.29,2.29,0,0,0,2.09-1.64l7.74-26.74A121.31,121.31,0,0,0,2033,612.92l25.62,10.93a2.31,2.31,0,0,0,2.6-.57Z" transform="translate(-198.11 -96)" fill="#91b3fa"/><path d="M1963.64,545.55a33.08,33.08,0,1,1,9.66-1.46A32.73,32.73,0,0,1,1963.64,545.55Zm0-59.35a26.28,26.28,0,1,0,25.09,18.59,26.31,26.31,0,0,0-25.09-18.59Z" transform="translate(-198.11 -96)" fill="#bdd0fb"/><path d="M1963,596.06a84,84,0,0,1-83.8-79.8c-.07-1.42-.11-2.84-.11-4.25a84,84,0,0,1,167.9-4.16h0a84.53,84.53,0,0,1-1,17.86l-6.68-1.1a77.81,77.81,0,0,0,1-12.51c0-1.3,0-2.61-.1-3.91A77.22,77.22,0,0,0,1885.83,512q0,1.93.09,3.9a77.25,77.25,0,0,0,120,60.35l3.77,5.63A83.86,83.86,0,0,1,1967.26,596C1965.82,596,1964.38,596.06,1963,596.06Z" transform="translate(-198.11 -96)" fill="#bdd0fb"/><path d="M1854.46,378.19l-8.59-13a67.91,67.91,0,0,0,5.74-21.27l14-6.94a1.28,1.28,0,0,0,.7-1.31l-2.42-18.56a1.29,1.29,0,0,0-1-1.1l-15.28-3.13a68.09,68.09,0,0,0-11-19.09l5-14.79a1.3,1.3,0,0,0-.43-1.43l-14.84-11.41a1.28,1.28,0,0,0-1.49-.06l-13,8.59a67.85,67.85,0,0,0-21.26-5.74l-6.94-14a1.3,1.3,0,0,0-1.32-.71l-18.56,2.42a1.29,1.29,0,0,0-1.09,1L1759.45,273a67.9,67.9,0,0,0-19.08,11l-14.8-5a1.28,1.28,0,0,0-1.42.44l-11.42,14.83a1.29,1.29,0,0,0,0,1.49l8.59,13a67.58,67.58,0,0,0-5.74,21.26l-14,6.94a1.29,1.29,0,0,0-.7,1.32l2.42,18.56a1.29,1.29,0,0,0,1,1.09l15.28,3.14a67.9,67.9,0,0,0,11,19.08l-5,14.8a1.28,1.28,0,0,0,.43,1.42l14.84,11.42a1.28,1.28,0,0,0,1.48.05l13-8.59a67.64,67.64,0,0,0,21.27,5.74l6.94,14a1.28,1.28,0,0,0,1.31.7l18.57-2.42a1.27,1.27,0,0,0,1.09-1l3.13-15.28a67.57,67.57,0,0,0,19.09-11l14.79,5a1.29,1.29,0,0,0,1.43-.43l11.42-14.84A1.28,1.28,0,0,0,1854.46,378.19Z" transform="translate(-198.11 -96)" fill="#91b3fa"/><path d="M1783.56,357a20,20,0,1,1,7.37-1.41A19.88,19.88,0,0,1,1783.56,357Zm0-33.25a13.24,13.24,0,1,0,12.32,8.36A13.17,13.17,0,0,0,1783.55,323.73Z" transform="translate(-198.11 -96)" fill="#bdd0fb"/><path d="M1843.58,419.65a2.26,2.26,0,0,1-1.35-4.07c2.35-1.75,4.65-3.63,6.83-5.59a2.26,2.26,0,1,1,3,3.36c-2.29,2.06-4.69,4-7.15,5.85A2.19,2.19,0,0,1,1843.58,419.65Z" transform="translate(-198.11 -96)" fill="#7d97f4"/><path d="M1798.25,438.5a2.26,2.26,0,0,1-.33-4.49,98.39,98.39,0,0,0,17.9-4.43,2.26,2.26,0,0,1,1.49,4.27,104,104,0,0,1-18.73,4.63Zm-30.57-.19a2.19,2.19,0,0,1-.36,0,103.53,103.53,0,0,1-18.67-4.84,2.26,2.26,0,0,1,1.54-4.24,98.59,98.59,0,0,0,17.85,4.62,2.26,2.26,0,0,1-.36,4.49Zm-45.1-19.37a2.18,2.18,0,0,1-1.36-.47,102.67,102.67,0,0,1-14.16-13.08,2.26,2.26,0,0,1,3.37-3A97.24,97.24,0,0,0,1724,414.88a2.26,2.26,0,0,1-1.38,4.06Zm-30.49-38.43a2.26,2.26,0,0,1-2.06-1.34c-.66-1.46-1.29-3-1.89-4.47a103.09,103.09,0,0,1-4.36-13.76,2.26,2.26,0,1,1,4.39-1.06,98.47,98.47,0,0,0,4.17,13.16c.57,1.45,1.18,2.87,1.81,4.28a2.27,2.27,0,0,1-1.13,3A2.36,2.36,0,0,1,1692.09,380.51Z" transform="translate(-198.11 -96)" fill="#7d97f4"/><path d="M1683.44,332.09h-.17a2.26,2.26,0,0,1-2.09-2.42c.22-3.06.58-6.14,1.08-9.17a2.23,2.23,0,0,1,2.59-1.86,2.26,2.26,0,0,1,1.87,2.59c-.48,2.89-.82,5.84-1,8.76A2.27,2.27,0,0,1,1683.44,332.09Z" transform="translate(-198.11 -96)" fill="#7d97f4"/><path d="M1723.08,259.1a2.26,2.26,0,0,1-1.36-4.06c2.46-1.85,5-3.61,7.62-5.22a2.26,2.26,0,0,1,2.39,3.84c-2.49,1.54-4.94,3.22-7.29,5A2.29,2.29,0,0,1,1723.08,259.1Z" transform="translate(-198.11 -96)" fill="#7d97f4"/><path d="M1882.21,320.83A2.27,2.27,0,0,1,1880,319a98,98,0,0,0-5-17.43,2.26,2.26,0,1,1,4.21-1.63,101.74,101.74,0,0,1,5.2,18.23,2.25,2.25,0,0,1-1.8,2.64A3,3,0,0,1,1882.21,320.83Zm-20-43.95a2.27,2.27,0,0,1-1.77-.85,97.44,97.44,0,0,0-12.51-13.1,2.26,2.26,0,1,1,3-3.41,102.72,102.72,0,0,1,13.09,13.7,2.26,2.26,0,0,1-.37,3.18A2.2,2.2,0,0,1,1862.22,276.88ZM1824,247.39a2.29,2.29,0,0,1-.91-.19,98.32,98.32,0,0,0-17.19-5.75,2.26,2.26,0,1,1,1-4.4,102.82,102.82,0,0,1,18,6,2.25,2.25,0,0,1-.91,4.32Zm-65.85-5.27a2.26,2.26,0,0,1-.57-4.44,102.36,102.36,0,0,1,18.71-3.1,2.26,2.26,0,0,1,.32,4.51,97.57,97.57,0,0,0-17.88,3A2.36,2.36,0,0,1,1758.17,242.12Z" transform="translate(-198.11 -96)" fill="#7d97f4"/><path d="M1881.76,359.88a2.5,2.5,0,0,1-.47-.05,2.26,2.26,0,0,1-1.74-2.68c.6-2.87,1.09-5.8,1.43-8.71a2.26,2.26,0,0,1,4.49.54c-.36,3-.87,6.1-1.5,9.11A2.27,2.27,0,0,1,1881.76,359.88Z" transform="translate(-198.11 -96)" fill="#7d97f4"/><path d="M1783.13,385.31a48.58,48.58,0,0,1-48-42.3,48.79,48.79,0,0,1-.42-6.37,48.56,48.56,0,1,1,97,3.43c0,.25,0,.49,0,.74l-6.75-.56c.09-1.14.14-2.3.14-3.45a41.42,41.42,0,0,0-.36-5.44h0a41.26,41.26,0,0,0-.92-4.86v0h0v-.05h0a41.78,41.78,0,0,0-82.27,10.24,42.25,42.25,0,0,0,.36,5.48,41.79,41.79,0,0,0,67.32,27.4l4.21,5.31a48.94,48.94,0,0,1-30.21,10.46Z" transform="translate(-198.11 -96)" fill="#bdd0fb"/><path d="M1427.2,748.66c-.2-2.46-2.72-4.6-7-6.31,4.64-2.56,7.2-5.3,7-8-.66-8.13-26.41-12.69-57.53-10.18s-55.8,11.14-55.14,19.27c.2,2.47,2.71,4.6,7,6.31-4.64,2.56-7.2,5.3-7,8,.2,2.46,2.71,4.6,7,6.31-4.64,2.56-7.2,5.3-7,8,.2,2.47,2.71,4.61,7,6.32-4.64,2.55-7.2,5.29-7,8,.29,3.6,5.49,6.49,13.89,8.39a70.34,70.34,0,0,0,.22,8.79c1.21,15,18.07,26.73,40.36,26.73s41.59-16,41.81-31a75.28,75.28,0,0,0-.44-9.81c10.67-3.56,17.17-7.91,16.83-12.13-.2-2.47-2.72-4.6-7-6.32,4.64-2.55,7.2-5.29,7-8-.2-2.47-2.72-4.6-7-6.31C1424.85,754.09,1427.41,751.35,1427.2,748.66Z" transform="translate(-198.11 -96)" fill="url(#linear-gradient-21)"/><path d="M1355.28,798a134.2,134.2,0,0,1-24.68-2,.75.75,0,1,1,.28-1.47c10.93,2.09,25.53,2.56,41.11,1.3a177.07,177.07,0,0,0,34.48-5.95.75.75,0,0,1,.41,1.44,178.41,178.41,0,0,1-34.77,6C1366.32,797.74,1360.67,798,1355.28,798Z" transform="translate(-198.11 -96)" fill="url(#linear-gradient-22)"/><path d="M1355.43,783.66c-12,0-22.73-1.13-30.3-3.29a.73.73,0,0,1-.51-.92.74.74,0,0,1,.92-.52c10.78,3.07,28.15,4,46.45,2.55,18.1-1.46,35-5.13,45.16-9.83a.75.75,0,0,1,.63,1.36c-10.33,4.77-27.4,8.49-45.67,10C1366.41,783.43,1360.79,783.66,1355.43,783.66Z" transform="translate(-198.11 -96)" fill="url(#linear-gradient-23)"/><path d="M1355.28,769.37c-13,0-24.31-1.33-31.94-3.84a.76.76,0,0,1-.48-.95.75.75,0,0,1,1-.47c10.62,3.5,28.63,4.65,48.18,3.07,18.1-1.46,35-5.13,45.16-9.82a.74.74,0,0,1,.63,1.35c-10.33,4.77-27.4,8.49-45.67,10C1366.32,769.14,1360.66,769.37,1355.28,769.37Z" transform="translate(-198.11 -96)" fill="url(#linear-gradient-24)"/><path d="M1355.38,755.06a129.32,129.32,0,0,1-26.91-2.44.75.75,0,0,1,.33-1.46c10.93,2.43,26.67,3.06,43.19,1.73,17.94-1.45,34.74-5.08,44.93-9.72a.73.73,0,0,1,1,.37.76.76,0,0,1-.37,1c-10.34,4.7-27.33,8.39-45.43,9.85C1366.39,754.84,1360.76,755.06,1355.38,755.06Z" transform="translate(-198.11 -96)" fill="url(#linear-gradient-25)"/><path d="M1293.64,676.49a105.23,105.23,0,0,0-18.84-36.79c-18.52-23.34-48.74-70.81-52.46-135.61-5.41-94.24,78.18-141.42,154.45-135s151.53,63.2,143.29,150.87c-5.07,53.95-35.26,94.87-57.74,118.37a124.77,124.77,0,0,0-30,53.1c-6.75,24.36-22.81,54.72-61,56.57C1322,750.37,1301.51,704.34,1293.64,676.49Z" transform="translate(-198.11 -96)" fill="url(#linear-gradient-26)"/><path d="M1384,729.18l26.69-173.57c.55-3.59,2.32-6,3.94-5.38s2.5,4,1.95,7.61c0,.09,0,.21,0,.3l-30.4,172c-.23,1.29-.89,2.11-1.47,1.82S1383.82,730.44,1384,729.18Z" transform="translate(-198.11 -96)" fill="url(#linear-gradient-27)"/><path d="M1356.31,730.56,1329.62,557c-.55-3.59-2.31-6-3.94-5.38s-2.49,4-1.94,7.6a2.87,2.87,0,0,0,0,.31l30.4,172c.23,1.29.88,2.11,1.46,1.82S1356.5,731.81,1356.31,730.56Z" transform="translate(-198.11 -96)" fill="url(#linear-gradient-28)"/><path d="M1410.51,540.7a2.81,2.81,0,0,0-3.5-.91l-14.86,7L1387,532a3.14,3.14,0,0,0-1.81-1.82,3.69,3.69,0,0,0-4.57,1.41l0,0L1368.37,554,1357,522.24l0,0a3.62,3.62,0,0,0-1.72-1.94,4.45,4.45,0,0,0-5.61,1.11l-17.08,23.52a2,2,0,0,0,.6,3,2.86,2.86,0,0,0,3.63-.39l15-16.78,13.55,30.17v0a2.42,2.42,0,0,0,1.19,1.17,2.85,2.85,0,0,0,3.55-.92l13.07-21,4.92,10.6,0,.1a1.19,1.19,0,0,0,.12.22,2.79,2.79,0,0,0,3.5.91l17.64-8.24A2.1,2.1,0,0,0,1410.51,540.7Z" transform="translate(-198.11 -96)" fill="url(#linear-gradient-29)"/><path d="M1462.92,615.93a3.33,3.33,0,0,1-2-.67,3.38,3.38,0,0,1-.7-4.74,196.86,196.86,0,0,0,12.38-18.8,3.39,3.39,0,0,1,5.87,3.39,203.62,203.62,0,0,1-12.81,19.46A3.39,3.39,0,0,1,1462.92,615.93Z" transform="translate(-198.11 -96)" fill="url(#linear-gradient-30)"/><path d="M1484.87,578.25a3.38,3.38,0,0,1-3.1-4.73c28.2-64.95,3.88-119.46,3.63-120a3.39,3.39,0,1,1,6.16-2.82c1.07,2.32,25.82,57.82-3.58,125.52A3.39,3.39,0,0,1,1484.87,578.25Z" transform="translate(-198.11 -96)" fill="url(#linear-gradient-31)"/><path d="M1740,986.18a5.1,5.1,0,0,1,1-9.88c24.32-3.15,60-12.68,71.66-41.22C1831,890.3,1793,717.63,1967.35,686.73c160.82-28.49,250.39,22.4,248.35,171C2213.73,1001.77,1982.24,1069.3,1740,986.18Z" transform="translate(-198.11 -96)" fill="url(#linear-gradient-32)"/><rect x="1662.28" y="730.66" width="15.6" height="122.06" fill="url(#linear-gradient-33)"/><rect x="1688.35" y="772.61" width="15.6" height="80.11" fill="url(#linear-gradient-34)"/><rect x="1714.41" y="668.93" width="15.6" height="183.79" fill="url(#linear-gradient-35)"/><rect x="1740.47" y="808.57" width="15.6" height="44.15" fill="url(#linear-gradient-36)"/><rect x="1766.54" y="693.5" width="15.6" height="159.21" fill="url(#linear-gradient-37)"/><rect x="1792.6" y="721.07" width="15.6" height="131.65" fill="url(#linear-gradient-38)"/><rect x="1818.67" y="751.04" width="15.6" height="101.68" fill="url(#linear-gradient-39)"/><rect x="1844.73" y="631.78" width="15.6" height="220.94" fill="url(#linear-gradient-40)"/><rect x="1870.8" y="655.15" width="15.6" height="197.57" fill="url(#linear-gradient-41)"/><rect x="1896.86" y="690.51" width="15.6" height="162.21" fill="url(#linear-gradient-42)"/><rect x="1922.92" y="812.66" width="15.6" height="40.05" fill="url(#linear-gradient-43)"/><path d="M2187.94,358.11l.47,9.71a1.48,1.48,0,0,1-2.95.14v0l-.46-9.67v0a1.48,1.48,0,0,1,3-.14Z" transform="translate(-198.11 -96)" fill="#7d97f4"/><path d="M2188.75,377.53l.22,9.7a1.47,1.47,0,1,1-2.94.07v0l-.23-9.67v0a1.48,1.48,0,0,1,2.95-.07Z" transform="translate(-198.11 -96)" fill="#7d97f4"/><path d="M2189.08,397v9.71a1.48,1.48,0,0,1-3,0v-9.72a1.48,1.48,0,1,1,2.95,0Z" transform="translate(-198.11 -96)" fill="#7d97f4"/><path d="M2188.93,416.38l-.26,9.71a1.47,1.47,0,1,1-2.93-.08v0l.25-9.67v0a1.47,1.47,0,0,1,2.94.08Z" transform="translate(-198.11 -96)" fill="#7d97f4"/><path d="M2188.29,435.79l-.5,9.71a1.47,1.47,0,0,1-1.54,1.39,1.48,1.48,0,0,1-1.39-1.55h0l.5-9.67v0a1.47,1.47,0,0,1,2.93.15Z" transform="translate(-198.11 -96)" fill="#7d97f4"/><path d="M2187.16,455.19l-.76,9.69a1.46,1.46,0,1,1-2.92-.23v0l.75-9.65v0a1.47,1.47,0,0,1,2.93.23Z" transform="translate(-198.11 -96)" fill="#7d97f4"/><path d="M2185.51,474.56l-1,9.66a1.47,1.47,0,0,1-2.92-.31v0l1-9.62v0a1.46,1.46,0,0,1,2.91.31Z" transform="translate(-198.11 -96)" fill="#7d97f4"/><path d="M2183.33,493.87l-1.3,9.62a1.46,1.46,0,1,1-2.89-.39v0l1.29-9.58v0a1.46,1.46,0,1,1,2.9.39Z" transform="translate(-198.11 -96)" fill="#7d97f4"/><path d="M2180.6,513.1l-1.58,9.59a1.46,1.46,0,0,1-2.88-.47v0l1.57-9.54v0a1.46,1.46,0,1,1,2.89.47Z" transform="translate(-198.11 -96)" fill="#7d97f4"/><path d="M2177.3,532.25l-1.87,9.54a1.46,1.46,0,0,1-2.87-.56v0l1.86-9.5v0a1.46,1.46,0,0,1,2.87.56Z" transform="translate(-198.11 -96)" fill="#7d97f4"/><path d="M2173.4,551.3l-2.17,9.47a1.46,1.46,0,0,1-2.84-.65v0l2.17-9.43v0a1.46,1.46,0,1,1,2.85.65Z" transform="translate(-198.11 -96)" fill="#7d97f4"/><path d="M2168.9,570.21l-2.5,9.39a1.45,1.45,0,1,1-2.81-.74v0l2.47-9.34v0a1.46,1.46,0,0,1,2.82.75Z" transform="translate(-198.11 -96)" fill="#7d97f4"/><path d="M2163.75,589l-2.83,9.3a1.45,1.45,0,1,1-2.78-.84v0l2.81-9.25v0a1.46,1.46,0,1,1,2.79.85Z" transform="translate(-198.11 -96)" fill="#7d97f4"/><path d="M2157.93,607.51l-3.16,9.2a1.45,1.45,0,0,1-2.74-.94v0l3.14-9.14v0a1.45,1.45,0,1,1,2.74.94Z" transform="translate(-198.11 -96)" fill="#7d97f4"/><path d="M2151.44,625.85l-3.52,9.06a1.45,1.45,0,0,1-2.7-1v0l3.49-9v0a1.45,1.45,0,0,1,2.71,1Z" transform="translate(-198.11 -96)" fill="#7d97f4"/><path d="M2144.23,643.91l-3.87,8.93a1.45,1.45,0,0,1-2.66-1.16v0l3.85-8.86v0a1.45,1.45,0,0,1,2.66,1.15Z" transform="translate(-198.11 -96)" fill="#7d97f4"/><path d="M2136.3,661.68l-4.24,8.75a1.45,1.45,0,0,1-2.61-1.26l0,0,4.21-8.7,0,0a1.45,1.45,0,1,1,2.6,1.27Z" transform="translate(-198.11 -96)" fill="#7d97f4"/><path d="M2127.63,679.09l-4.62,8.56a1.45,1.45,0,0,1-2.55-1.37l0,0,4.59-8.5v0a1.45,1.45,0,1,1,2.55,1.37Z" transform="translate(-198.11 -96)" fill="#7d97f4"/><path d="M2118.2,696.11l-5,8.35a1.45,1.45,0,0,1-2.48-1.49l0,0,5-8.3,0,0a1.44,1.44,0,0,1,2.48,1.48Z" transform="translate(-198.11 -96)" fill="#7d97f4"/><path d="M2108,712.69l-5.39,8.1a1.44,1.44,0,1,1-2.4-1.59l0,0,5.34-8,0,0a1.45,1.45,0,0,1,2.41,1.6Z" transform="translate(-198.11 -96)" fill="#7d97f4"/><path d="M2097.05,728.77l-5.76,7.84a1.44,1.44,0,1,1-2.32-1.7l0,0,5.72-7.79,0,0a1.44,1.44,0,0,1,2.32,1.71Z" transform="translate(-198.11 -96)" fill="#7d97f4"/><path d="M2085.33,744.31l-6.13,7.56a1.44,1.44,0,0,1-2.24-1.82l0,0,6.09-7.49,0,0a1.44,1.44,0,1,1,2.23,1.81Z" transform="translate(-198.11 -96)" fill="#7d97f4"/><path d="M2072.87,759.26l-6.5,7.25a1.45,1.45,0,0,1-2,.1,1.43,1.43,0,0,1-.11-2l0,0,6.45-7.19,0,0a1.43,1.43,0,0,1,2.13,1.92Z" transform="translate(-198.11 -96)" fill="#7d97f4"/><path d="M2059.69,773.58l-6.86,6.91a1.44,1.44,0,1,1-2-2l0,0,6.8-6.85,0,0a1.44,1.44,0,0,1,2,2Z" transform="translate(-198.11 -96)" fill="#7d97f4"/><path d="M2045.8,787.22l-7.19,6.56a1.43,1.43,0,1,1-1.93-2.12l0,0,7.14-6.51,0,0a1.43,1.43,0,1,1,1.93,2.11Z" transform="translate(-198.11 -96)" fill="#7d97f4"/><path d="M2031.25,800.16l-7.51,6.19a1.43,1.43,0,0,1-1.82-2.21l0,0,7.45-6.15,0,0a1.43,1.43,0,1,1,1.82,2.21Z" transform="translate(-198.11 -96)" fill="#7d97f4"/><path d="M2016.08,812.35l-7.81,5.81a1.43,1.43,0,1,1-1.7-2.29l0,0,7.75-5.77,0,0a1.43,1.43,0,1,1,1.71,2.29Z" transform="translate(-198.11 -96)" fill="#7d97f4"/><path d="M2000.33,823.79l-8.08,5.42a1.42,1.42,0,1,1-1.59-2.36l0,0,8-5.4,0,0a1.43,1.43,0,0,1,1.6,2.38Z" transform="translate(-198.11 -96)" fill="#7d97f4"/><path d="M1984,834.45l-8.32,5a1.43,1.43,0,1,1-1.48-2.44l0,0,8.27-5,0,0a1.42,1.42,0,1,1,1.47,2.44Z" transform="translate(-198.11 -96)" fill="#7d97f4"/><path d="M1967.28,844.34l-8.54,4.65a1.42,1.42,0,0,1-1.36-2.5l0,0,8.49-4.62,0,0a1.43,1.43,0,0,1,1.36,2.51Z" transform="translate(-198.11 -96)" fill="#7d97f4"/><path d="M1950.09,853.44l-8.73,4.27a1.42,1.42,0,1,1-1.25-2.56h0l8.68-4.24h0a1.42,1.42,0,1,1,1.25,2.55Z" transform="translate(-198.11 -96)" fill="#7d97f4"/><path d="M1932.53,861.79l-8.92,3.89a1.42,1.42,0,1,1-1.13-2.61h0l8.86-3.87h0a1.42,1.42,0,0,1,1.14,2.61Z" transform="translate(-198.11 -96)" fill="#7d97f4"/><path d="M1914.62,869.38l-9.06,3.52a1.42,1.42,0,1,1-1-2.64h0l9-3.5h0a1.42,1.42,0,1,1,1,2.64Z" transform="translate(-198.11 -96)" fill="#7d97f4"/><path d="M1896.42,876.25l-9.19,3.16a1.42,1.42,0,1,1-.92-2.68h0l9.14-3.15h0a1.41,1.41,0,0,1,1.8.87,1.43,1.43,0,0,1-.88,1.81Z" transform="translate(-198.11 -96)" fill="#7d97f4"/><path d="M1878,882.4l-9.3,2.82a1.41,1.41,0,1,1-.82-2.7h0l9.26-2.81h0a1.43,1.43,0,0,1,1.77.95,1.41,1.41,0,0,1-1,1.76Z" transform="translate(-198.11 -96)" fill="#7d97f4"/><path d="M1859.31,887.88l-9.4,2.49a1.41,1.41,0,1,1-.72-2.73h0l9.35-2.48h0a1.42,1.42,0,1,1,.72,2.74Z" transform="translate(-198.11 -96)" fill="#7d97f4"/><path d="M1840.47,892.7l-9.48,2.17a1.41,1.41,0,1,1-.63-2.75h0l9.43-2.16h0a1.42,1.42,0,0,1,.63,2.76Z" transform="translate(-198.11 -96)" fill="#7d97f4"/><path d="M1821.49,896.89l-9.53,1.87a1.41,1.41,0,0,1-.55-2.77h0l9.5-1.86h0a1.41,1.41,0,0,1,.54,2.77Z" transform="translate(-198.11 -96)" fill="#7d97f4"/><path d="M1802.39,900.48l-9.59,1.58a1.4,1.4,0,1,1-.45-2.77h0l9.54-1.57h0a1.41,1.41,0,0,1,1.62,1.16,1.4,1.4,0,0,1-1.16,1.62Z" transform="translate(-198.11 -96)" fill="#7d97f4"/><path d="M1783.19,903.51l-9.63,1.31a1.41,1.41,0,1,1-.37-2.79h0l9.6-1.31h0a1.41,1.41,0,1,1,.38,2.79Z" transform="translate(-198.11 -96)" fill="#7d97f4"/><path d="M1763.92,906l-9.67,1a1.4,1.4,0,0,1-.3-2.79h0l9.62-1h0a1.4,1.4,0,1,1,.31,2.79Z" transform="translate(-198.11 -96)" fill="#7d97f4"/><path d="M1744.58,908l-9.68.8a1.4,1.4,0,1,1-.24-2.79h0l9.65-.8h0a1.4,1.4,0,0,1,.23,2.79Z" transform="translate(-198.11 -96)" fill="#7d97f4"/><path d="M1725.2,909.45l-9.69.56a1.4,1.4,0,1,1-.17-2.79h0l9.66-.57h0a1.4,1.4,0,1,1,.16,2.8Z" transform="translate(-198.11 -96)" fill="#7d97f4"/><path d="M1705.8,910.47l-9.71.34a1.4,1.4,0,0,1-.1-2.79h0l9.68-.35h0a1.4,1.4,0,1,1,.1,2.8Z" transform="translate(-198.11 -96)" fill="#7d97f4"/><path d="M1686.38,911.05l-9.71.13a1.38,1.38,0,0,1-1.42-1.37,1.4,1.4,0,0,1,1.38-1.42h0l9.69-.14h0a1.4,1.4,0,0,1,0,2.8Z" transform="translate(-198.11 -96)" fill="#7d97f4"/><path d="M1667,911.23l-9.7,0a1.4,1.4,0,1,1,0-2.79l9.69,0a1.4,1.4,0,0,1,0,2.79Z" transform="translate(-198.11 -96)" fill="#7d97f4"/><path d="M1647.55,911.13l-9.71-.14a1.38,1.38,0,0,1-1.37-1.41,1.4,1.4,0,0,1,1.42-1.38l9.69.14a1.4,1.4,0,0,1,1.38,1.41,1.38,1.38,0,0,1-1.4,1.38Z" transform="translate(-198.11 -96)" fill="#7d97f4"/><path d="M1628.13,910.79l-9.71-.26a1.39,1.39,0,1,1,.09-2.78l9.69.25a1.4,1.4,0,0,1-.06,2.79Z" transform="translate(-198.11 -96)" fill="#7d97f4"/><path d="M1608.72,910.21l-9.7-.38a1.39,1.39,0,1,1,.11-2.77l9.69.37a1.39,1.39,0,0,1-.09,2.78Z" transform="translate(-198.11 -96)" fill="#7d97f4"/><path d="M1589.32,909.4l-9.7-.49a1.39,1.39,0,1,1,.15-2.77l9.68.48a1.39,1.39,0,0,1-.12,2.78Z" transform="translate(-198.11 -96)" fill="#7d97f4"/><path d="M1569.93,908.36l-9.69-.6a1.38,1.38,0,1,1,.17-2.76l9.68.59a1.39,1.39,0,1,1-.16,2.77Z" transform="translate(-198.11 -96)" fill="#7d97f4"/><path d="M1550.55,907.11l-9.68-.71a1.37,1.37,0,0,1-1.28-1.48,1.39,1.39,0,0,1,1.48-1.28l9.67.71a1.38,1.38,0,0,1-.18,2.76Z" transform="translate(-198.11 -96)" fill="#7d97f4"/><path d="M1531.19,905.65l-9.68-.81a1.39,1.39,0,1,1,.24-2.76l9.66.81a1.38,1.38,0,0,1-.22,2.76Z" transform="translate(-198.11 -96)" fill="#7d97f4"/><path d="M1511.84,904l-9.66-.91a1.39,1.39,0,0,1-1.25-1.51,1.37,1.37,0,0,1,1.51-1.24l9.65.9a1.39,1.39,0,0,1-.24,2.76Z" transform="translate(-198.11 -96)" fill="#7d97f4"/><path d="M1492.52,902.11l-9.65-1a1.38,1.38,0,0,1,.3-2.74l9.63,1a1.38,1.38,0,0,1-.27,2.75Z" transform="translate(-198.11 -96)" fill="#7d97f4"/><path d="M1473.23,900.05l-9.64-1.1a1.38,1.38,0,1,1,.32-2.74l9.63,1.1a1.38,1.38,0,0,1-.3,2.74Z" transform="translate(-198.11 -96)" fill="#7d97f4"/><path d="M1454,897.8l-9.63-1.19a1.38,1.38,0,1,1,.34-2.73l9.62,1.19a1.37,1.37,0,1,1-.32,2.73Z" transform="translate(-198.11 -96)" fill="#7d97f4"/><path d="M1434.69,895.38l-9.62-1.28a1.37,1.37,0,1,1,.37-2.72l9.61,1.27a1.38,1.38,0,0,1-.35,2.73Z" transform="translate(-198.11 -96)" fill="#7d97f4"/><path d="M1415.45,892.78l-9.62-1.36a1.37,1.37,0,0,1,.39-2.72l9.61,1.36a1.37,1.37,0,0,1-.38,2.72Z" transform="translate(-198.11 -96)" fill="#7d97f4"/><path d="M1396.22,890l-9.6-1.45a1.37,1.37,0,0,1-1.16-1.55,1.39,1.39,0,0,1,1.57-1.16l9.59,1.44a1.37,1.37,0,0,1-.39,2.72Z" transform="translate(-198.11 -96)" fill="#7d97f4"/><path d="M1377,887.09l-9.58-1.52a1.37,1.37,0,1,1,.43-2.7l9.58,1.52a1.37,1.37,0,1,1-.42,2.7Z" transform="translate(-198.11 -96)" fill="#7d97f4"/><path d="M1357.84,884l-9.57-1.6a1.36,1.36,0,1,1,.45-2.69l9.57,1.59a1.37,1.37,0,1,1-.44,2.7Z" transform="translate(-198.11 -96)" fill="#7d97f4"/><path d="M1338.7,880.79l-9.56-1.66a1.37,1.37,0,1,1,.47-2.69l9.55,1.66a1.37,1.37,0,0,1-.45,2.7Z" transform="translate(-198.11 -96)" fill="#7d97f4"/><path d="M1319.58,877.43,1310,875.7a1.36,1.36,0,1,1,.49-2.68l9.54,1.72a1.37,1.37,0,1,1-.47,2.69Z" transform="translate(-198.11 -96)" fill="#7d97f4"/><path d="M1300.49,873.93l-9.54-1.79a1.36,1.36,0,1,1,.51-2.68l9.53,1.79a1.36,1.36,0,0,1,1.09,1.59,1.38,1.38,0,0,1-1.59,1.1Z" transform="translate(-198.11 -96)" fill="#7d97f4"/><path d="M1281.42,870.31l-9.53-1.86a1.35,1.35,0,0,1-1.07-1.6,1.37,1.37,0,0,1,1.6-1.07l9.51,1.86a1.36,1.36,0,0,1-.51,2.67Z" transform="translate(-198.11 -96)" fill="#7d97f4"/><path d="M1262.37,866.56l-9.51-1.92a1.35,1.35,0,0,1-1.07-1.6,1.37,1.37,0,0,1,1.61-1.06l9.5,1.92a1.36,1.36,0,1,1-.53,2.66Z" transform="translate(-198.11 -96)" fill="#7d97f4"/><path d="M1243.35,862.7l-9.5-2a1.35,1.35,0,1,1,.55-2.65l9.5,2a1.36,1.36,0,0,1-.55,2.66Z" transform="translate(-198.11 -96)" fill="#7d97f4"/><path d="M1224.35,858.72l-9.49-2a1.36,1.36,0,1,1,.57-2.65l9.48,2a1.36,1.36,0,1,1-.56,2.66Z" transform="translate(-198.11 -96)" fill="#7d97f4"/><path d="M1205.37,854.65l-9.48-2.08a1.35,1.35,0,0,1,.58-2.64L1206,852a1.36,1.36,0,0,1-.58,2.65Z" transform="translate(-198.11 -96)" fill="#7d97f4"/><path d="M1186.42,850.47l-9.47-2.12a1.35,1.35,0,1,1,.59-2.64l9.46,2.12a1.35,1.35,0,1,1-.58,2.64Z" transform="translate(-198.11 -96)" fill="#7d97f4"/><path d="M1167.48,846.2,1158,844a1.35,1.35,0,1,1,.61-2.63l9.45,2.16a1.35,1.35,0,1,1-.6,2.64Z" transform="translate(-198.11 -96)" fill="#7d97f4"/><path d="M1148.57,841.85l-9.45-2.21a1.35,1.35,0,1,1,.61-2.62l9.45,2.2a1.35,1.35,0,0,1-.61,2.63Z" transform="translate(-198.11 -96)" fill="#7d97f4"/><path d="M1129.67,837.42l-9.44-2.25a1.35,1.35,0,1,1,.63-2.62l9.43,2.24a1.35,1.35,0,0,1-.61,2.63Z" transform="translate(-198.11 -96)" fill="#7d97f4"/><path d="M1110.8,832.91l-9.44-2.28A1.35,1.35,0,1,1,1102,828l9.43,2.28a1.35,1.35,0,0,1-.63,2.62Z" transform="translate(-198.11 -96)" fill="#7d97f4"/><path d="M1091.94,828.33l-9.43-2.32a1.34,1.34,0,0,1,.64-2.6l9.42,2.31a1.34,1.34,0,1,1-.63,2.61Z" transform="translate(-198.11 -96)" fill="#7d97f4"/><path d="M1073.09,823.69l-9.41-2.35a1.34,1.34,0,0,1,.64-2.6l9.42,2.34a1.35,1.35,0,0,1,1,1.63,1.36,1.36,0,0,1-1.63,1Z" transform="translate(-198.11 -96)" fill="#7d97f4"/><path d="M1054.26,819l-9.41-2.38a1.34,1.34,0,1,1,.65-2.59l9.41,2.37a1.34,1.34,0,1,1-.65,2.6Z" transform="translate(-198.11 -96)" fill="#7d97f4"/><path d="M1035.43,814.23l-9.4-2.39a1.34,1.34,0,1,1,.66-2.6l9.4,2.4a1.34,1.34,0,0,1-.65,2.59Z" transform="translate(-198.11 -96)" fill="#7d97f4"/><path d="M1016.63,809.43l-9.39-2.43a1.34,1.34,0,1,1,.68-2.59l9.38,2.43a1.34,1.34,0,0,1-.66,2.59Z" transform="translate(-198.11 -96)" fill="#7d97f4"/><path d="M997.86,804.54l-9.38-2.49a1.34,1.34,0,1,1,.69-2.58l9.37,2.48a1.34,1.34,0,0,1-.68,2.59Z" transform="translate(-198.11 -96)" fill="#7d97f4"/><path d="M979.11,799.54,969.74,797a1.33,1.33,0,0,1-.94-1.63,1.35,1.35,0,0,1,1.64-.94L979.8,797a1.34,1.34,0,1,1-.69,2.58Z" transform="translate(-198.11 -96)" fill="#7d97f4"/><path d="M960.38,794.47,951,791.91a1.33,1.33,0,0,1-.94-1.63,1.35,1.35,0,0,1,1.64-.94l9.36,2.56a1.32,1.32,0,0,1,.93,1.63,1.33,1.33,0,0,1-1.63.94Z" transform="translate(-198.11 -96)" fill="#7d97f4"/><path d="M941.66,789.35l-9.36-2.57a1.33,1.33,0,0,1,.7-2.57l9.36,2.57a1.33,1.33,0,0,1-.7,2.57Z" transform="translate(-198.11 -96)" fill="#7d97f4"/><path d="M922.94,784.21l-9.36-2.57a1.33,1.33,0,1,1,.71-2.56l9.36,2.57a1.33,1.33,0,0,1-.71,2.56Z" transform="translate(-198.11 -96)" fill="#7d97f4"/><path d="M904.22,779.08l-9.36-2.56a1.32,1.32,0,1,1,.7-2.55l9.36,2.55a1.33,1.33,0,0,1-.69,2.56Z" transform="translate(-198.11 -96)" fill="#7d97f4"/><path d="M885.5,774l-9.37-2.52a1.33,1.33,0,1,1,.69-2.56l9.37,2.52a1.33,1.33,0,0,1-.69,2.56Z" transform="translate(-198.11 -96)" fill="#7d97f4"/><path d="M866.76,769l-9.38-2.48a1.32,1.32,0,0,1,.67-2.56l9.39,2.48a1.32,1.32,0,1,1-.68,2.56Z" transform="translate(-198.11 -96)" fill="#7d97f4"/><path d="M848,764l-9.39-2.43a1.32,1.32,0,1,1,.65-2.56l9.4,2.43A1.32,1.32,0,1,1,848,764Z" transform="translate(-198.11 -96)" fill="#7d97f4"/><path d="M829.21,759.18l-9.4-2.35a1.33,1.33,0,0,1-1-1.6,1.31,1.31,0,0,1,1.6-1l9.42,2.36a1.32,1.32,0,1,1-.64,2.56Z" transform="translate(-198.11 -96)" fill="#7d97f4"/><path d="M810.39,754.51,801,752.23a1.32,1.32,0,1,1,.61-2.56L811,752a1.32,1.32,0,1,1-.62,2.56Z" transform="translate(-198.11 -96)" fill="#7d97f4"/><path d="M791.53,750l-9.44-2.17a1.32,1.32,0,0,1,.58-2.57l9.46,2.18a1.32,1.32,0,1,1-.59,2.57Z" transform="translate(-198.11 -96)" fill="#7d97f4"/><path d="M772.64,745.7l-9.47-2.06a1.31,1.31,0,1,1,.55-2.57l9.48,2.07a1.31,1.31,0,1,1-.56,2.56Z" transform="translate(-198.11 -96)" fill="#7d97f4"/><path d="M753.69,741.63l-9.5-1.94a1.31,1.31,0,1,1,.52-2.57l9.51,1.94a1.31,1.31,0,1,1-.52,2.57Z" transform="translate(-198.11 -96)" fill="#7d97f4"/><path d="M734.69,737.81l-9.52-1.8h0a1.31,1.31,0,1,1,.48-2.58l9.55,1.81a1.31,1.31,0,0,1-.49,2.58h0Z" transform="translate(-198.11 -96)" fill="#7d97f4"/><path d="M715.63,734.28l-9.55-1.71a1.32,1.32,0,0,1-1.06-1.52,1.31,1.31,0,0,1,1.52-1l9.55,1.71a1.3,1.3,0,1,1-.45,2.57Z" transform="translate(-198.11 -96)" fill="#7d97f4"/><path d="M696.54,730.85l-9.55-1.7a1.31,1.31,0,0,1-1.06-1.51,1.32,1.32,0,0,1,1.52-1.06l9.55,1.7a1.31,1.31,0,0,1-.46,2.58Z" transform="translate(-198.11 -96)" fill="#7d97f4"/><path d="M677.44,727.49l-9.56-1.61a1.3,1.3,0,0,1-1.08-1.49,1.32,1.32,0,0,1,1.51-1.08l9.57,1.61a1.3,1.3,0,0,1-.43,2.57Z" transform="translate(-198.11 -96)" fill="#7d97f4"/><path d="M658.32,724.35l-9.58-1.44h0a1.3,1.3,0,0,1,.39-2.58l9.61,1.44a1.3,1.3,0,0,1-.39,2.58h0Z" transform="translate(-198.11 -96)" fill="#7d97f4"/><path d="M639.14,721.59l-9.61-1.19h0a1.3,1.3,0,0,1,.32-2.58l9.65,1.19a1.3,1.3,0,1,1-.32,2.58h0Z" transform="translate(-198.11 -96)" fill="#7d97f4"/><path d="M619.91,719.37l-9.64-.86h0a1.3,1.3,0,0,1,.23-2.59l9.68.86a1.3,1.3,0,1,1-.23,2.59h0Z" transform="translate(-198.11 -96)" fill="#7d97f4"/><path d="M600.62,717.84,591,717.4h0a1.3,1.3,0,1,1,.12-2.59l9.72.44a1.3,1.3,0,0,1-.12,2.6h0Z" transform="translate(-198.11 -96)" fill="#7d97f4"/><path d="M581.29,717.2l-9.66.07h0a1.3,1.3,0,0,1,0-2.59l9.74-.07a1.3,1.3,0,1,1,0,2.59h0Z" transform="translate(-198.11 -96)" fill="#7d97f4"/><path d="M562,717.63l-9.64.69h0a1.29,1.29,0,0,1-.18-2.58l9.72-.69a1.29,1.29,0,1,1,.18,2.58h0Z" transform="translate(-198.11 -96)" fill="#7d97f4"/><path d="M542.75,719.35l-9.55,1.4h-.05a1.29,1.29,0,0,1-.38-2.56l9.65-1.42a1.29,1.29,0,1,1,.38,2.56h0Z" transform="translate(-198.11 -96)" fill="#7d97f4"/><path d="M523.73,722.55l-9.38,2.22-.06,0a1.29,1.29,0,0,1-1.55-1,1.28,1.28,0,0,1,1-1.55l9.49-2.26a1.3,1.3,0,0,1,.6,2.52h-.06Z" transform="translate(-198.11 -96)" fill="#7d97f4"/><path d="M505.09,727.44,496,730.57l-.06,0a1.29,1.29,0,1,1-.84-2.44l9.24-3.17a1.29,1.29,0,0,1,.83,2.44Z" transform="translate(-198.11 -96)" fill="#7d97f4"/><path d="M487.05,734.17l-8.72,4.07-.07,0a1.28,1.28,0,0,1-1.08-2.33L486,731.8a1.29,1.29,0,0,1,1.09,2.34h0Z" transform="translate(-198.11 -96)" fill="#7d97f4"/><path d="M469.85,742.8l-8.22,5-.06,0a1.28,1.28,0,1,1-1.34-2.19l8.34-5.1a1.28,1.28,0,0,1,1.76.43,1.29,1.29,0,0,1-.42,1.77h0Z" transform="translate(-198.11 -96)" fill="#7d97f4"/><path d="M453.71,753.29l-7.52,6-.07.06a1.28,1.28,0,0,1-1.6-2l7.67-6.1a1.28,1.28,0,0,1,1.6,2Z" transform="translate(-198.11 -96)" fill="#7d97f4"/><path d="M439.12,765.78l-6.62,7-.06.06a1.28,1.28,0,0,1-1.86-1.76l6.74-7.1a1.29,1.29,0,0,1,1.81-.05,1.27,1.27,0,0,1,.05,1.81h0Z" transform="translate(-198.11 -96)" fill="#7d97f4"/><path d="M426.33,780.13l-5.69,7.76-.05.06a1.28,1.28,0,1,1-2.06-1.51l5.79-7.88a1.28,1.28,0,1,1,2.06,1.51h0Z" transform="translate(-198.11 -96)" fill="#7d97f4"/><path d="M415.43,796l-4.7,8.4,0,.07a1.28,1.28,0,0,1-2.23-1.25l4.78-8.54a1.28,1.28,0,1,1,2.23,1.25Z" transform="translate(-198.11 -96)" fill="#7d97f4"/><path d="M406.57,813.05,403,822l0,.08a1.27,1.27,0,0,1-2.36-1l3.64-9.08a1.28,1.28,0,0,1,2.37,1Z" transform="translate(-198.11 -96)" fill="#7d97f4"/><path d="M400,831.12l-2.29,9.33,0,.09a1.27,1.27,0,1,1-2.47-.6l2.33-9.52a1.28,1.28,0,0,1,2.48.61Z" transform="translate(-198.11 -96)" fill="#7d97f4"/><path d="M396.18,849.92l-.74,9.56v.12a1.27,1.27,0,0,1-2.54-.2l.76-9.79a1.27,1.27,0,1,1,2.54.2h0Z" transform="translate(-198.11 -96)" fill="#7d97f4"/><path d="M395.57,869.06c.14,1.59.21,3.18.43,4.77l.58,4.77v.06a1.27,1.27,0,0,1-2.53.31l-.59-4.86c-.22-1.62-.29-3.26-.44-4.89a1.27,1.27,0,1,1,2.53-.23Z" transform="translate(-198.11 -96)" fill="#7d97f4"/><path d="M398.33,888.05l2.54,9.24,0,.12a1.27,1.27,0,0,1-2.45.67l-2.6-9.47a1.27,1.27,0,1,1,2.45-.67Z" transform="translate(-198.11 -96)" fill="#7d97f4"/><path d="M404.29,906.23a79.82,79.82,0,0,0,4.39,8.47,1.27,1.27,0,0,1-2.17,1.31,82.38,82.38,0,0,1-4.54-8.75,1.27,1.27,0,0,1,2.32-1Z" transform="translate(-198.11 -96)" fill="#7d97f4"/><path d="M414.14,922.47a59.7,59.7,0,0,0,6.69,6.71A1.27,1.27,0,0,1,421,931a1.26,1.26,0,0,1-1.78.13,60.8,60.8,0,0,1-7-7,1.28,1.28,0,0,1,.15-1.79,1.26,1.26,0,0,1,1.78.16Z" transform="translate(-198.11 -96)" fill="#7d97f4"/><path d="M428.46,934.92l8.24,4.88.1.06a1.27,1.27,0,0,1-1.29,2.18l-8.45-5a1.27,1.27,0,0,1,1.29-2.18h0Z" transform="translate(-198.11 -96)" fill="#7d97f4"/><path d="M445.35,943.94l9,3.48.08,0a1.26,1.26,0,0,1-.91,2.35l-9.12-3.54a1.26,1.26,0,1,1,.91-2.35Z" transform="translate(-198.11 -96)" fill="#7d97f4"/><path d="M463.49,950.3l9.35,2.31.08,0a1.26,1.26,0,1,1-.61,2.44l-9.5-2.34a1.26,1.26,0,0,1,.61-2.45h0Z" transform="translate(-198.11 -96)" fill="#7d97f4"/><path d="M482.31,954.34l9.55,1.14h.08a1.26,1.26,0,0,1-.29,2.5l-9.72-1.16a1.25,1.25,0,0,1-1.1-1.39,1.27,1.27,0,0,1,1.4-1.11h.08Z" transform="translate(-198.11 -96)" fill="#7d97f4"/><path d="M501.46,956l9.57-.36h.13a1.25,1.25,0,0,1,.1,2.5l-9.83.38a1.26,1.26,0,0,1-.09-2.52h.12Z" transform="translate(-198.11 -96)" fill="#7d97f4"/><polygon points="2004.14 205.71 1984.52 238.46 1970.77 211.09 2004.14 205.71" fill="#7d97f4"/><path d="M2066.2,194.69l42,130.57a9.66,9.66,0,0,0,12.5,6.12l129.51-47.1a3.87,3.87,0,0,0,.26-7.17Z" transform="translate(-198.11 -96)" fill="#91b3fa"/><polygon points="2004.12 205.7 1868.09 98.69 1983.25 213.37 1978.19 222.68 2004.12 205.7" fill="#7d97f4"/><polygon points="1970.83 217.82 1984.52 238.46 1983.25 213.37 1970.83 217.82" fill="#7d97f4"/><path d="M1163.28,1488.43s-2.34,12.57-3.55,25a8.58,8.58,0,0,0,8.13,9.38c16.59.85,52.08,2.53,64.83,2.09a2.79,2.79,0,0,0,2.49-3.81h0a6.26,6.26,0,0,0-3.16-3.4l-58.4-27.51Z" transform="translate(-198.11 -96)" fill="url(#linear-gradient-44)"/><path d="M1161.53,1481l1.65,15.08s10.22,4.88,17.29-.44l-4.09-16.83Z" transform="translate(-198.11 -96)" fill="url(#linear-gradient-45)"/><path d="M1165.58,1197.86c-.81,3.93-6,196.24,13.72,282.64a2.92,2.92,0,0,1-1.75,3.38,51,51,0,0,1-16.78,3.25,5,5,0,0,1-5-3.67c-5.69-20-32.89-120.52-35.66-216.28-3.08-107,0-3.64,0-3.64l3-66.09Z" transform="translate(-198.11 -96)" fill="url(#linear-gradient-46)"/><path d="M1095.75,1494.36s-3.6,6.32-7.19,23.18a5.24,5.24,0,0,0,4.55,6.32c5.48.59,13.91,1.36,20.67,1.38a5.23,5.23,0,0,0,5.23-5.78c-.69-6.17-2.93-16.31-10.06-24.26Z" transform="translate(-198.11 -96)" fill="url(#linear-gradient-47)"/><path d="M1092.83,1475l4,22.81s4.1,3.11,12.28,1l-1.76-24.52Z" transform="translate(-198.11 -96)" fill="url(#linear-gradient-48)"/><path d="M1084.14,1203c-17.78,101.32,1.26,250.86,7.88,280.16a4.54,4.54,0,0,0,3.65,3.49,30.49,30.49,0,0,0,13.15-.4,4.16,4.16,0,0,0,3-3.82c1.15-23.62.87-168.71,17.09-225.89a13,13,0,0,1,5.09-7.14l30.62-21.33,2.66-34.92Z" transform="translate(-198.11 -96)" fill="url(#linear-gradient-49)"/><path d="M1193.13,1011.72c-50.39-1.32-106.13,12.22-106.13,12.22-15.86,87.5-4.43,188.72-4.43,188.72,38.92,10.6,83.09-5.46,83.09-5.46,6.83-36.58,38.07-139.39,38.07-139.39,24.65-2.82,45-9.73,61.79-19-12.6-14.89-18.42-33.74-20.93-44.87C1226.72,1009.34,1208.67,1012.12,1193.13,1011.72Z" transform="translate(-198.11 -96)" fill="#91b3fa"/><path d="M1342.69,938.91a9.65,9.65,0,0,0-11.19-3.26c-7.71,31.26-46.84,56.29-86.91,68.32,2.51,11.13,8.33,30,20.93,44.87C1332.18,1012.2,1342.69,938.91,1342.69,938.91Z" transform="translate(-198.11 -96)" fill="url(#linear-gradient-50)"/><path d="M1341.47,940.42c.5,1.65-5.52,4.1-9-2.67-.09-3.23-1.92-17.07,0-19.68,10.41-13.91,30.49-31.28,30.49-31.28a4.73,4.73,0,0,1,.53,6.59l-9.75,10c2,3.67,4.42,6.77,5.53,11.2a13.55,13.55,0,0,1-1.44,10c-1.73,3-4.08,7-6.3,10.08A13.37,13.37,0,0,1,1341.47,940.42Z" transform="translate(-198.11 -96)" fill="url(#linear-gradient-51)"/><path d="M1349.49,909.85l-8.88,7.38-2.83,7.4,7.76,8.78s2.78-14.72,4.78-17.89S1351.31,910.8,1349.49,909.85Z" transform="translate(-198.11 -96)" fill="url(#linear-gradient-52)"/><path d="M1105.87,1072.92l-18.87-49s-47.37,31.53-55.5,72c8.89.74,25,3.21,40.81,11.36C1076,1088.19,1105.87,1072.92,1105.87,1072.92Z" transform="translate(-198.11 -96)" fill="#91b3fa"/><path d="M1146.56,1119.23s-53.13,29.36-70.72,3.69a20.06,20.06,0,0,1-3.53-15.61c-15.76-8.15-31.92-10.62-40.81-11.36a56,56,0,0,0,5.72,38.42c30.69,57.44,116.21-2,116.21-2Z" transform="translate(-198.11 -96)" fill="url(#linear-gradient-53)"/><path d="M1142.47,970.32,1126,1016.54a1.68,1.68,0,0,0,.75,2c4.34,2.45,20,9.59,39.12-2.26a7.87,7.87,0,0,0,3.67-5.59l5.58-40.08Z" transform="translate(-198.11 -96)" fill="url(#linear-gradient-54)"/><path d="M1177.77,927.71s17.29,33.31,14.91,46.68-24.2,12.2-43.15,1.14l-13-35.91Z" transform="translate(-198.11 -96)" fill="url(#linear-gradient-55)"/><path d="M1150.54,958a1.37,1.37,0,0,0,.61-2c-1.39-2.17-4-6.59-4.8-10.45,0,0-3.14-2,8.1-4.63s28-6.59,31.63-16.11c3.52-9.28-5.26-32.78-19.82-14.26a1.36,1.36,0,0,1-2.16,0c-2.33-3.09-8.46-9.51-17.1-5.73-8.09,3.53-9,9.42-9,12.39a1.35,1.35,0,0,1-1.62,1.38c-4.06-.81-13.82-1.57-18.48,8.4-3.83,8.22-1.44,12.91.77,15.22a1.36,1.36,0,0,1-.61,2.25c-2.68.8-6.16,3-5.87,9.3.39,8.67,10.09,8,12.85,7.63a1.37,1.37,0,0,1,1.21.44c2.34,2.64,12.89,13.85,24.4,15.3a1.38,1.38,0,0,0,1.47-1.81l-4.86-14.55a1.38,1.38,0,0,1,.76-1.69Z" transform="translate(-198.11 -96)" fill="url(#linear-gradient-56)"/><path d="M1152.52,960s-12.45-8.72-13.44-1.48,11.19,10.6,17.26,8Z" transform="translate(-198.11 -96)" fill="url(#linear-gradient-57)"/><path d="M1135.7,1165.63l29-101.08a3,3,0,0,1,2.49-2.12c5.24-.61,20.44-2.33,38-3.81,21.14-1.79,45.68-3.24,60.34-2a3,3,0,0,1,2.42,4.26c-8.34,16.87-42.64,85.5-59.82,108a3,3,0,0,1-2.39,1.17l-67.15-.63A3,3,0,0,1,1135.7,1165.63Z" transform="translate(-198.11 -96)" fill="url(#linear-gradient-58)"/><path d="M1142.7,1141.21s-4-16.58-2.41-22.46,4.78-13.44,15.28-11.76,22.89,6.1,22.89,6.1-.62,7.66-8.6,5.19l5,3.83s-.71,6.14-7.45,2.86l4.6,5.08s-2.9,5-7.86,1.8S1156.76,1143.21,1142.7,1141.21Z" transform="translate(-198.11 -96)" fill="url(#linear-gradient-59)"/><path d="M1203.19,1088.79a8.5,8.5,0,1,0,8.5-8.5A8.51,8.51,0,0,0,1203.19,1088.79Z" transform="translate(-198.11 -96)" fill="url(#linear-gradient-60)"/><path d="M1167.92,1094.39l-2.16-.64,5.89-20a9.11,9.11,0,0,1,6.86-6.38c18.67-3.9,67.87-4.69,70-4.73l0,2.26c-.51,0-51.07.83-69.53,4.68a6.85,6.85,0,0,0-5.16,4.81Z" transform="translate(-198.11 -96)" fill="url(#linear-gradient-61)"/><path d="M825.38,1377.27c-3.09,4.56-15.35,107.93-17.27,146.11a4.51,4.51,0,0,0,4.52,4.73h0a4.52,4.52,0,0,0,4.47-3.82l22.43-143.74Z" transform="translate(-198.11 -96)" fill="url(#linear-gradient-62)"/><path d="M924,1377.27c3.08,4.56,15.34,107.93,17.26,146.11a4.51,4.51,0,0,1-4.52,4.73h0a4.52,4.52,0,0,1-4.47-3.82l-22.43-143.74Z" transform="translate(-198.11 -96)" fill="url(#linear-gradient-63)"/><path d="M806.83,1369.2v1.13c-.08,8.11,6.91,14.76,15.66,14.91L926.15,1387c8.62.15,15.81-6.08,16.22-14.07l.06-1c.43-8.33-6.64-15.34-15.63-15.5l-103.71-1.86C814.21,1354.38,806.9,1361,806.83,1369.2Z" transform="translate(-198.11 -96)" fill="url(#linear-gradient-64)"/><path d="M1025.21,1519.62c-18.43,0-26.58-1.58-30.22-3a7,7,0,0,0,6.81,5.42H1067a3.18,3.18,0,0,0,3.06-4C1062.62,1518.61,1046.83,1519.62,1025.21,1519.62Z" transform="translate(-198.11 -96)" fill="#7d97f4"/><path d="M1070.05,1518a3.09,3.09,0,0,0-.54-1.11c-5-6.34-14.94-16.3-28.51-16.11-19.88.28-26.81,2.44-42.26.13L995.1,1513a6.8,6.8,0,0,0-.11,3.6c3.64,1.44,11.79,3,30.22,3C1046.83,1519.62,1062.62,1518.61,1070.05,1518Z" transform="translate(-198.11 -96)" fill="url(#linear-gradient-65)"/><path d="M1003.21,1487.9l-4.47,15.21s9.91,4.51,18.63.89l1.71-13.18Z" transform="translate(-198.11 -96)" fill="url(#linear-gradient-66)"/><path d="M1138.34,1510c-14.36,11.54-21.71,15.43-25.45,16.59a7,7,0,0,0,8.69-.06l50.82-40.84a3.16,3.16,0,0,0-.11-5C1166.87,1485.83,1155.19,1496.5,1138.34,1510Z" transform="translate(-198.11 -96)" fill="#7d97f4"/><path d="M1172.29,1480.71a3.09,3.09,0,0,0-1.11-.53c-7.82-1.81-21.81-3.28-32.27,5.36-15.32,12.67-19.38,18.69-32.87,26.57l4.69,11.65a6.9,6.9,0,0,0,2.16,2.87c3.74-1.16,11.09-5.05,25.45-16.59C1155.19,1496.5,1166.87,1485.83,1172.29,1480.71Z" transform="translate(-198.11 -96)" fill="url(#linear-gradient-67)"/><path d="M907.51,1314.54s110.34,9,133,19.67-18.47,160-18.47,160-6.16,3-19.87-1.3c0,0,14.06-110.2,3.6-134.1l-119.47-19.54Z" transform="translate(-198.11 -96)" fill="url(#linear-gradient-68)"/><path d="M1095.08,1491.13c1,.94,11,21,11,21s11.07-2.39,13.32-9.4l-9.95-18.09Z" transform="translate(-198.11 -96)" fill="url(#linear-gradient-69)"/><path d="M841.06,1313.62a55.77,55.77,0,0,0-3.45,20.15,30.26,30.26,0,0,0,28.87,29.6l130.43,5.94a6.27,6.27,0,0,1,5.78,4.71c3.06,11.85,18,48.26,91.28,120.91a5.9,5.9,0,0,0,7.3.79l10.43-6.58a2.42,2.42,0,0,0,.79-3.25l-76-129.68a29.39,29.39,0,0,0-17.86-13.25l-111.17-28.42Z" transform="translate(-198.11 -96)" fill="url(#linear-gradient-70)"/><path d="M969.6,1111s-14,24.7-28.22,36.67l29.45,16.43s6.63-26.15,21.79-33.81Z" transform="translate(-198.11 -96)" fill="url(#linear-gradient-71)"/><path d="M838.69,1314.54s35.21,8.59,68.82,0c0,0,47-63.22,65.23-80.43,0,0,29,45.8,93.62,52.29l3.6-8.05s-51.43-23.71-67.26-60.13-22.19-52-36.59-61.47c-9-5.92-14.34-10-17.12-12.17a4.59,4.59,0,0,0-5.28-.33C928.43,1153.56,856.5,1202.82,838.69,1314.54Z" transform="translate(-198.11 -96)" fill="url(#linear-gradient-72)"/><path d="M970.83,1233.22a2.23,2.23,0,0,1-1.79-.88,140,140,0,0,1-17.72-31.42,2.26,2.26,0,0,1,4.21-1.62,138.68,138.68,0,0,0,17.09,30.29,2.25,2.25,0,0,1-1.79,3.63Z" transform="translate(-198.11 -96)" fill="url(#linear-gradient-73)"/><path d="M1062.48,1274.15l7.27-1.94,22.07-5.11a10.22,10.22,0,0,1,7.76,1.3l19,11.95-52.43-.09Z" transform="translate(-198.11 -96)" fill="url(#linear-gradient-74)"/><path d="M991.79,1074s13.57,22.58,15.93,35,6.14,20.28-8.06,24.72-27.4-1.18-35.68-12.82c0,0-12.93-17.93-11.64-26.13S991.79,1074,991.79,1074Z" transform="translate(-198.11 -96)" fill="url(#linear-gradient-75)"/><path d="M967.76,1111.28l1.84-.24s-9.62-14.53-3.32-18.14,31.93-12.44,36.38-22.54c4.29-9.74-2.13-20.73-9.87-23a1,1,0,0,0-1.18.63l-.46,1.22a1,1,0,0,1-1.84,0h0a1,1,0,0,0-1.81,0c-1.37,3-5.48,8.19-17.81,12.19-17.5,5.67-28.4,14.49-27.06,26.92a1,1,0,0,1-1.42,1c-1.43-.63-3.6-.73-6.11,2-4.38,4.79-1,15.26,11,22.67a1,1,0,0,1,.16,1.59c-1.79,1.54-4.31,5,3.78,8,8.28,3.12,12.79,2.06,14.46,1.4a1,1,0,0,0,.62-1.12L963,1113a1,1,0,0,1,.85-1.17Z" transform="translate(-198.11 -96)" fill="url(#linear-gradient-76)"/><path d="M968.52,1113.52s-6-14.77-12.29-9.58,5.82,16.67,11.41,16.51Z" transform="translate(-198.11 -96)" fill="url(#linear-gradient-77)"/><path d="M1042.22,1290.63h.26l112-.11a5,5,0,1,0,0-10l-112,.11a5,5,0,0,0-.25,10Z" transform="translate(-198.11 -96)" fill="url(#linear-gradient-78)"/><path d="M1197.84,1181a1.63,1.63,0,0,0-.11.23l-47.12,101.59a5,5,0,1,0,9.07,4.21l47.13-101.59a5,5,0,0,0-9-4.44Z" transform="translate(-198.11 -96)" fill="url(#linear-gradient-79)"/><rect x="1281.17" y="1296.73" width="11.82" height="127.83" fill="url(#linear-gradient-80)"/><path d="M1537,1523H1433.43a7.69,7.69,0,0,1,7.69-7.69h88.14A7.69,7.69,0,0,1,1537,1523Z" transform="translate(-198.11 -96)" fill="url(#linear-gradient-81)"/><rect x="1224.04" y="1268.09" width="130.16" height="36.92" rx="12.71" fill="url(#linear-gradient-82)"/><path d="M1397.93,1307.5s-17.57,2.72-37.31,15.93a9.82,9.82,0,0,0-4.35,9.4c2.37,18.73,12.09,79.36,44.15,138.57a14.89,14.89,0,0,1,1.43,10.23l-5.57,25.92-10.33,9.68h26.61l17.71-47.93-7.57-2.4a14.32,14.32,0,0,1-10-13.42l-.89-51.42c.76-22.91-14-38.72-14-38.72l42.49-2.07Z" transform="translate(-198.11 -96)" fill="url(#linear-gradient-83)"/><path d="M1375.56,1521.91c-2.42,3.17,26.08,7.36,40.48.42,0,0,20-34.73,20-52.61,0,0-1.58-3.65-13.3-2.82,0,0-6.71,41.12-13.78,45.73s-19.8.46-19.8.46S1379.14,1517.23,1375.56,1521.91Z" transform="translate(-198.11 -96)" fill="url(#linear-gradient-84)"/><path d="M1434.86,1364.09c-.22-.39-45.74-5.47-45.74-5.47s1.49,13.84-3.17,32.89-71.49,101.6-71.49,101.6l7,22.22c-21.67,7.55-43,8.75-64,3.85l43.43-26.07s40.65-138.51,65.55-163.22l45.63-15.79Z" transform="translate(-198.11 -96)" fill="url(#linear-gradient-85)"/><path d="M1537,1283.5s26.23,39,28.38,56.8-7.18,25-34.7,26.22-101,1.17-101,1.17l-62.71-53.59s45.7-16.3,57.58-20.91S1537,1283.5,1537,1283.5Z" transform="translate(-198.11 -96)" fill="url(#linear-gradient-86)"/><path d="M1318.82,1507.85s7.54,7.3,2.45,15.43c0,0-59.77,10.6-76,5.79,0,0,3.37-7.69,21.65-16.44l-1.35,1a2.18,2.18,0,0,0,1.44,3.92C1279.05,1516.89,1304,1514.69,1318.82,1507.85Z" transform="translate(-198.11 -96)" fill="url(#linear-gradient-87)"/><path d="M1423.35,1036.11c53.61-9.12,78.85,34.61,77,43.79a1.69,1.69,0,0,0,2.11,1.93c6.15-1.66,19.75-3.74,28.18,6.82,7.44,9.32,1.88,18.12-2.66,22.95a1.69,1.69,0,0,0,1.42,2.86c11.31-1.43,35.9-1.77,39.93,21.27,3.75,21.48-11.2,27.53-20.07,29.24a1.68,1.68,0,0,0-.56,3.08c4.42,2.81,9.55,8.6,7.48,20-3.25,17.94-38.42,16.47-42.53,16.23a1.71,1.71,0,0,1-.73-.21L1456.59,1172a1.69,1.69,0,0,1-.83-1.18l-11.37-65.68a1.68,1.68,0,0,1,.45-1.46l-36.72-51.82C1394.79,1049.89,1422.71,1036.21,1423.35,1036.11Z" transform="translate(-198.11 -96)" fill="url(#linear-gradient-88)"/><path d="M1466,1278.33s-30.54-29.08-45.57-48.34a40.85,40.85,0,0,1-6.92-36.78c6.86-23.13,19.06-47.08,20.17-50.8,1.71-5.72,36-5.48,36-5.48s67.39,43.73,93.87,117.82l-29.74,9.25s-17.59-29.51-35-48.28c0,0,30.08,39.74,31.14,56Z" transform="translate(-198.11 -96)" fill="url(#linear-gradient-89)"/><path d="M1429.56,1110.47c.36,1.19,9.3,30.82,10,31.44s19.6,1.63,28.49-4.45L1446,1094.29Z" transform="translate(-198.11 -96)" fill="url(#linear-gradient-90)"/><path d="M1393.73,1072.4s-4.32,17,7.63,39.8,25.48,22.81,32.88,15.5,16.51-19.7,14.35-41.78S1400,1050.81,1393.73,1072.4Z" transform="translate(-198.11 -96)" fill="url(#linear-gradient-91)"/><path d="M1432.05,1087.12s-19.82-30.31-38.42-6.45l-.33,8.67s-21.78-2.58-18-22.55,22.63-32.45,46.87-23.8,38.12,17.52,39.69,34.89-12.26,13.56-12.26,13.56-4.5-12.23-10.91-13.5-4.74,8.26-4.74,8.26Z" transform="translate(-198.11 -96)" fill="url(#linear-gradient-92)"/><path d="M1440.5,1093.66s-10.29-15.52.25-17.84,8.9,15.13,7.77,21.58Z" transform="translate(-198.11 -96)" fill="url(#linear-gradient-93)"/><path d="M1403.8,1280.49l22.44-21.63,31,13.12s30.89,4.78,48.58,0l17.68-4.79,40-12.44,6.27,17.74a10.68,10.68,0,0,1-3.9,12.27,71.34,71.34,0,0,1-10.09,6.28c-5.27,2.3-129.74-1.59-129.74-1.59Z" transform="translate(-198.11 -96)" fill="url(#linear-gradient-94)"/><path d="M1488.72,1290.69h-.3l-130.16-.14a5.83,5.83,0,1,1,0-11.65l130.16.14a5.83,5.83,0,0,1,.29,11.65Z" transform="translate(-198.11 -96)" fill="url(#linear-gradient-95)"/><path d="M1241.24,1172.5h108.41a20.66,20.66,0,0,1,18.68,11.85l50.12,106.27H1283.73a12.57,12.57,0,0,1-11.68-7.94l-38.86-98.34A8.66,8.66,0,0,1,1241.24,1172.5Z" transform="translate(-198.11 -96)" fill="url(#linear-gradient-96)"/><path d="M1317.61,1227c2.35,7.3.62,14.39-3.87,15.83s-10-3.3-12.39-10.6-.61-14.38,3.88-15.83S1315.27,1219.69,1317.61,1227Z" transform="translate(-198.11 -96)" fill="#91b3fa"/><path d="M1637.12,1506.91a157.89,157.89,0,0,1,1.91,16.59,7.15,7.15,0,0,1-6.44,7.54c-13.33,1.3-43.65,3.68-63,.89a3.25,3.25,0,0,1-1.78-5.59c8-7.44,27.26-21.91,59-25.08Z" transform="translate(-198.11 -96)" fill="url(#linear-gradient-97)"/><path d="M1643.74,1489.81l-6.73,16.51a5.51,5.51,0,0,1-5.65,3.42,30.35,30.35,0,0,1-5.5-1.07,7.22,7.22,0,0,1-4.81-9l5.08-17Z" transform="translate(-198.11 -96)" fill="url(#linear-gradient-98)"/><path d="M1758.91,1520.06s-13.49,11.29-18.74,25.76A6.15,6.15,0,0,0,1746,1554h27.76a6.55,6.55,0,0,0,6.47-7.66C1778.47,1536.35,1773.37,1520.1,1758.91,1520.06Z" transform="translate(-198.11 -96)" fill="url(#linear-gradient-99)"/><path d="M1775.62,1505.37s-2.72,12.06-4.82,20a2.55,2.55,0,0,1-3.33,1.74c-4.2-1.5-7.62-2.17-10.11-1.83a2,2,0,0,1-2.16-2l-.26-20Z" transform="translate(-198.11 -96)" fill="url(#linear-gradient-100)"/><path d="M1703.88,1234l-82.05,250.3s15.74,10.31,23.24,9.88L1742.52,1293s17,123.94,8.79,212.93l27.91,2.13s45.39-227.4,11-305.29Z" transform="translate(-198.11 -96)" fill="url(#linear-gradient-101)"/><path d="M1742,1290.86h.1a.79.79,0,0,0,.69-.89l-3.18-25.27a.8.8,0,1,0-1.58.2l3.19,25.27A.79.79,0,0,0,1742,1290.86Z" transform="translate(-198.11 -96)" fill="url(#linear-gradient-102)"/><path d="M1688.5,1013.75s66.47,5.9,57.07,53.27c0,0,36.74,69.15,53.92,150.61a4.78,4.78,0,0,1-3.88,5.69l-110.71,19a6,6,0,0,1-6.77-4.38l-26.45-102.22-10.31,47.52-32.75-8.53L1636.19,1035S1640,1014.63,1688.5,1013.75Z" transform="translate(-198.11 -96)" fill="#91b3fa"/><path d="M1651.12,1131.1l.17,0a.82.82,0,0,0,.63-1l-9.22-42.37a.83.83,0,0,0-1.62.35l9.23,42.37A.84.84,0,0,0,1651.12,1131.1Z" transform="translate(-198.11 -96)" fill="#7d97f4"/><path d="M1657.8,1257.18a15.8,15.8,0,0,1,11.43-1.49l7.7,1.92a2.79,2.79,0,0,0,3.45-2.4l8-70.94c10,4.73,24.34,4.17,29.09,3.82l-18.35,83.64H1634.9Z" transform="translate(-198.11 -96)" fill="url(#linear-gradient-103)"/><path d="M1487.23,1103.3l1.94-6.45a12.77,12.77,0,0,1,7.46-8.16l35.09-14.11s.53-4.5-7.41-7.56-6.09-12-6.09-12,10.86,5,26.74,12.81c9.09,4.49,14.19,12.42,16.89,18.38l79.52,96.94-9.33,6.42a24.92,24.92,0,0,1-36.14-8.87l-43.08-82.61C1531.19,1104.63,1509.31,1105.87,1487.23,1103.3Z" transform="translate(-198.11 -96)" fill="url(#linear-gradient-104)"/><path d="M1667,968.53l20.45,57.22s-18.11,14.15-31.32,9.37l-10.3-32.8S1653.66,962.23,1667,968.53Z" transform="translate(-198.11 -96)" fill="url(#linear-gradient-105)"/><path d="M1605.94,948c0,.88,19.7,55.75,19.7,55.75l31.09-11.91L1645.79,937S1605.94,933.22,1605.94,948Z" transform="translate(-198.11 -96)" fill="url(#linear-gradient-106)"/><path d="M1640.34,950.39l8,28.38a3.82,3.82,0,0,1,.16,1.11c0,2.32-.57,10.28-8.69,9.2-7.36-1-14.09-1.77-18.38.24a4.12,4.12,0,0,0-2.12,5.12,177.06,177.06,0,0,0,11.2,25.28,4.11,4.11,0,0,0,5.28,1.69c5.84-2.66,18-8.6,26.66-15.68a4.11,4.11,0,0,0,1.46-4c-1.36-7.26-5.42-29.34-5.6-35.67-.17-5.94,6.5-10.48,9.43-12.18a4,4,0,0,0,1.91-2.56c.92-3.83,1.7-12.48-9.34-14.39a4.12,4.12,0,0,1-3.34-4.91c.93-4.57.63-11.3-8-13.78-8.83-2.52-14.38,2.8-17.21,6.87a4.12,4.12,0,0,1-5.11,1.36,3.27,3.27,0,0,0-3.65.66,4.06,4.06,0,0,1-5.94-.9c-2.57-3.79-7.25-7.57-15.16-5-14,4.54-13.38,20.74-8.23,29.54s20.1,3,27.18-2.82c5.38-4.44,13.57-1.78,17.19-.26A4.13,4.13,0,0,1,1640.34,950.39Z" transform="translate(-198.11 -96)" fill="url(#linear-gradient-107)"/><path d="M1661.14,976.46s-8.32-15.72-2.82-20.66,14.81-4.13,14.56,8.17C1672.57,979.26,1661.14,976.46,1661.14,976.46Z" transform="translate(-198.11 -96)" fill="url(#linear-gradient-108)"/><path d="M1711,1189.16a78.17,78.17,0,0,0,8.13-.39l.59-.06,24.2-112.86a.81.81,0,0,0-.63-1,.82.82,0,0,0-1,.63l-24,111.68c-3.6.32-22.84,1.59-33-5.6l21-98-4.37-8.25a.83.83,0,1,0-1.46.78l4.1,7.71-21.07,98.5.42.32C1691.27,1188.11,1703.09,1189.16,1711,1189.16Z" transform="translate(-198.11 -96)" fill="#7d97f4"/><path d="M985.35,1533.23a3.84,3.84,0,0,1-1.67-.38,4.77,4.77,0,0,1-2.21-6l88.45-224.42a4.1,4.1,0,0,1,5.54-2.41,4.77,4.77,0,0,1,2.21,6l-88.45,224.42A4.23,4.23,0,0,1,985.35,1533.23Z" transform="translate(-198.11 -96)" fill="#7d97f4"/><path d="M1085,1533.23a4.22,4.22,0,0,1-3.88-2.79L992.66,1306a4.77,4.77,0,0,1,2.21-6,4.1,4.1,0,0,1,5.54,2.41l88.45,224.42a4.77,4.77,0,0,1-2.21,6A3.83,3.83,0,0,1,1085,1533.23Z" transform="translate(-198.11 -96)" fill="#7d97f4"/><path d="M1585.62,1533.23a3.83,3.83,0,0,1-1.66-.38,4.77,4.77,0,0,1-2.21-6l88.45-224.42a4.1,4.1,0,0,1,5.54-2.41,4.77,4.77,0,0,1,2.21,6l-88.45,224.42A4.23,4.23,0,0,1,1585.62,1533.23Z" transform="translate(-198.11 -96)" fill="#7d97f4"/><path d="M1685.26,1533.23a4.21,4.21,0,0,1-3.87-2.79L1592.94,1306a4.77,4.77,0,0,1,2.21-6,4.1,4.1,0,0,1,5.54,2.41l88.45,224.42a4.77,4.77,0,0,1-2.21,6A3.84,3.84,0,0,1,1685.26,1533.23Z" transform="translate(-198.11 -96)" fill="#7d97f4"/><path d="M1572.79,1286.53H1700.9v-13.22H1572.79C1575.53,1273.31,1575.53,1286.53,1572.79,1286.53Z" transform="translate(-198.11 -96)" fill="url(#linear-gradient-109)"/><path d="M1699.9,1286.53a1,1,0,0,0,1-1v-11.22a1,1,0,0,0-1-1h-130a1,1,0,0,1-1-1v-1a1,1,0,0,1,1-1h138.35a5.53,5.53,0,0,1,5.53,5.53v8.45a5.22,5.22,0,0,1-5.21,5.22H1569.88a1,1,0,0,1-1-1v-1a1,1,0,0,1,1-1Z" transform="translate(-198.11 -96)" fill="url(#linear-gradient-110)"/><path d="M1719.47,1295.44a3.9,3.9,0,0,0-1.6-4.16,9.5,9.5,0,0,0-5.86-1.83H944.42a10.4,10.4,0,0,0-7.36,2.67,4.18,4.18,0,0,0-.57,5.56l8.31,11.94c1.91,2.73,6,4.48,10.58,4.48h751.36c4.23,0,7.86-2,8.66-4.74Z" transform="translate(-198.11 -96)" fill="#7d97f4"/><circle cx="318.29" cy="1145.87" r="55.62" transform="translate(-612.39 113.03) rotate(-22.5)" fill="url(#linear-gradient-111)"/><circle cx="318.29" cy="1145.87" r="53.77" transform="translate(-915.14 464.68) rotate(-45)" fill="url(#linear-gradient-112)"/><path d="M274,1125.79a2.31,2.31,0,0,1-1-.24,2.26,2.26,0,0,1-1-3A51.68,51.68,0,0,1,318.29,1094a52.31,52.31,0,0,1,9.36.85,2.26,2.26,0,0,1-.81,4.44,47.87,47.87,0,0,0-8.55-.77A47.21,47.21,0,0,0,276,1124.55,2.24,2.24,0,0,1,274,1125.79Z" transform="translate(-198.11 -96)" fill="#fff" opacity="0.78"/><circle cx="319.46" cy="1147.04" r="45.51" transform="translate(-915.62 465.85) rotate(-45)" fill="#fff" opacity="0.61"/><path d="M315,1180.87v-4.95a40.41,40.41,0,0,1-13.89-3,2.87,2.87,0,0,1-1.58-3.38l1.25-4.62a2.9,2.9,0,0,1,3.92-1.89,33.51,33.51,0,0,0,12.83,2.71c5,0,8.68-1.69,8.68-5.15,0-3.11-2.87-5-9.77-6.82-9.86-2.7-16.94-7-16.94-15.67,0-7.84,5.73-13.82,15.67-15.42v-5a2.89,2.89,0,0,1,2.89-2.89H321a2.88,2.88,0,0,1,2.88,2.89v4.44a36.72,36.72,0,0,1,11,2,2.87,2.87,0,0,1,1.8,3.46l-1.16,4.27a2.88,2.88,0,0,1-3.8,1.94,30,30,0,0,0-10.8-2c-5.9,0-7.58,2.45-7.58,4.64,0,2.69,3.54,4.55,11.2,6.91,11,3.28,15.51,7.83,15.51,16,0,7.49-5.56,14.24-16.35,15.92v5.54a2.88,2.88,0,0,1-2.88,2.89h-2.91A2.89,2.89,0,0,1,315,1180.87Z" transform="translate(-198.11 -96)" fill="url(#linear-gradient-113)"/><circle cx="476.61" cy="1079.91" r="96.83" transform="translate(-863.81 1281.38) rotate(-80.78)" fill="url(#linear-gradient-114)"/><circle cx="476.61" cy="1079.91" r="93.61" transform="translate(-857.08 1306.13) rotate(-82.03)" fill="url(#linear-gradient-115)"/><path d="M399.42,1043.28a2.14,2.14,0,0,1-1-.24,2.25,2.25,0,0,1-1-3,88.29,88.29,0,0,1,79.2-48.77,89.8,89.8,0,0,1,16,1.44,2.26,2.26,0,0,1,1.82,2.63,2.23,2.23,0,0,1-2.63,1.81,85.44,85.44,0,0,0-15.18-1.36A83.79,83.79,0,0,0,401.44,1042,2.25,2.25,0,0,1,399.42,1043.28Z" transform="translate(-198.11 -96)" fill="#fff" opacity="0.78"/><circle cx="280.54" cy="985.95" r="79.23" fill="#fff" opacity="0.61"/><path d="M470.88,1140.85v-8.62a70.13,70.13,0,0,1-24.19-5.25,5,5,0,0,1-2.76-5.89l2.19-8a5,5,0,0,1,6.83-3.28,58.43,58.43,0,0,0,22.33,4.7c8.65,0,15.11-2.94,15.11-9,0-5.43-5-8.66-17-11.88-17.16-4.7-29.48-12.18-29.48-27.29,0-13.64,10-24,27.28-26.84v-8.62a5,5,0,0,1,5-5h5.07a5,5,0,0,1,5,5v7.74a64,64,0,0,1,19.17,3.44,5,5,0,0,1,3.12,6l-2,7.43a5,5,0,0,1-6.61,3.38,52.43,52.43,0,0,0-18.81-3.41c-10.26,0-13.2,4.25-13.2,8.07,0,4.69,6.16,7.92,19.51,12,19.07,5.72,27,13.64,27,27.87,0,13-9.68,24.79-28.46,27.72v9.65a5,5,0,0,1-5,5H475.9A5,5,0,0,1,470.88,1140.85Z" transform="translate(-198.11 -96)" fill="url(#linear-gradient-116)"/><circle cx="543.39" cy="1296.17" r="99.63" transform="translate(-955.49 667.87) rotate(-45)" fill="url(#linear-gradient-117)"/><circle cx="543.39" cy="1296.17" r="96.32" transform="translate(-955.49 667.87) rotate(-45)" fill="url(#linear-gradient-118)"/><path d="M464,1258.42a2.26,2.26,0,0,1-2-3.28A90.77,90.77,0,0,1,543.39,1205a92.22,92.22,0,0,1,16.44,1.48,2.26,2.26,0,1,1-.81,4.44,87.86,87.86,0,0,0-15.63-1.4A86.29,86.29,0,0,0,466,1257.18,2.25,2.25,0,0,1,464,1258.42Z" transform="translate(-198.11 -96)" fill="#fff" opacity="0.78"/><circle cx="545.49" cy="1298.27" r="81.52" transform="translate(-1041.49 1434.88) rotate(-76.72)" fill="#fff" opacity="0.61"/><path d="M537.49,1358.88V1350a72.42,72.42,0,0,1-24.89-5.4,5.14,5.14,0,0,1-2.84-6.06l2.26-8.26a5.16,5.16,0,0,1,7-3.38,60.05,60.05,0,0,0,23,4.83c8.91,0,15.55-3,15.55-9.21,0-5.58-5.13-8.9-17.51-12.22-17.66-4.83-30.34-12.53-30.34-28.07,0-14,10.27-24.76,28.08-27.63v-8.87a5.16,5.16,0,0,1,5.17-5.16h5.21a5.16,5.16,0,0,1,5.16,5.16v8a65.76,65.76,0,0,1,19.73,3.54,5.14,5.14,0,0,1,3.21,6.21l-2.07,7.64a5.16,5.16,0,0,1-6.8,3.48,53.86,53.86,0,0,0-19.35-3.51c-10.56,0-13.58,4.37-13.58,8.3,0,4.83,6.34,8.15,20.07,12.37,19.62,5.89,27.77,14,27.77,28.68,0,13.44-10,25.51-29.28,28.53v9.93a5.16,5.16,0,0,1-5.16,5.16h-5.22A5.16,5.16,0,0,1,537.49,1358.88Z" transform="translate(-198.11 -96)" fill="url(#linear-gradient-119)"/><circle cx="671.2" cy="1160.45" r="73" transform="translate(-779.89 1541.11) rotate(-80.78)" fill="url(#linear-gradient-120)"/><circle cx="671.2" cy="1160.45" r="70.57" transform="translate(-855.89 1240.48) rotate(-67.5)" fill="url(#linear-gradient-121)"/><path d="M613,1133.4a2.34,2.34,0,0,1-1-.24,2.27,2.27,0,0,1-1-3,67.47,67.47,0,0,1,72.37-36,2.26,2.26,0,1,1-.81,4.44,63.29,63.29,0,0,0-11.35-1A62.61,62.61,0,0,0,615,1132.16,2.28,2.28,0,0,1,613,1133.4Z" transform="translate(-198.11 -96)" fill="#fff" opacity="0.78"/><circle cx="672.74" cy="1161.99" r="59.73" transform="translate(-335.05 -5.1) rotate(-7.02)" fill="#fff" opacity="0.61"/><path d="M666.88,1206.4v-6.5a53.06,53.06,0,0,1-18.24-4,3.77,3.77,0,0,1-2.07-4.45l1.65-6a3.79,3.79,0,0,1,5.14-2.48,44,44,0,0,0,16.84,3.55c6.52,0,11.39-2.22,11.39-6.75,0-4.09-3.76-6.52-12.83-9-12.94-3.54-22.23-9.18-22.23-20.57,0-10.28,7.52-18.13,20.57-20.24v-6.49a3.78,3.78,0,0,1,3.79-3.79h3.81a3.79,3.79,0,0,1,3.79,3.79v5.83a48,48,0,0,1,14.45,2.6,3.76,3.76,0,0,1,2.36,4.54l-1.52,5.6a3.78,3.78,0,0,1-5,2.55,39.39,39.39,0,0,0-14.17-2.57c-7.74,0-10,3.21-10,6.08,0,3.54,4.64,6,14.7,9.07,14.38,4.31,20.35,10.28,20.35,21,0,9.85-7.3,18.69-21.45,20.9v7.28a3.79,3.79,0,0,1-3.79,3.78h-3.82A3.78,3.78,0,0,1,666.88,1206.4Z" transform="translate(-198.11 -96)" fill="url(#linear-gradient-122)"/><path d="M1017.5,298c82-1.21,487.32-8.3,570.51-9.76A14.68,14.68,0,0,1,1603,302.89v37.95a14.69,14.69,0,0,1-14.68,14.69H1017.73A14.69,14.69,0,0,1,1003,340.84V312.65A14.68,14.68,0,0,1,1017.5,298Z" transform="translate(-198.11 -96)" fill="url(#linear-gradient-123)"/><path d="M1120.82,327.2h0a14.79,14.79,0,0,0,15,14.78l330.58-5.74a14.78,14.78,0,0,0,14.1-18.29l-1.51-6.14a14.78,14.78,0,0,0-14.88-11.25l-329.08,11.87A14.79,14.79,0,0,0,1120.82,327.2Z" transform="translate(-198.11 -96)" fill="#bdd0fb"/><path d="M1047,329.25,996.17,381a5.22,5.22,0,0,0,.37,7.65l.38.32a4.85,4.85,0,0,0,6.85-.62l46.54-56.13Z" transform="translate(-198.11 -96)" fill="url(#linear-gradient-124)"/><path d="M1099.2,287.81c7.86,16.46.64,36.3-16.13,44.3s-36.74,1.14-44.59-15.32-.64-36.31,16.13-44.31S1091.34,271.34,1099.2,287.81Z" transform="translate(-198.11 -96)" opacity="0.28" fill="url(#linear-gradient-125)"/><path d="M1053,269.12c-18.66,8.9-26.7,31-18,49.3s31,26,49.62,17.05,26.7-31,17.95-49.3S1071.66,260.21,1053,269.12Zm29.34,61.48c-15.92,7.6-34.87,1.08-42.33-14.55s-.61-34.46,15.31-42.06,34.87-1.08,42.33,14.55S1098.26,323,1082.35,330.6Z" transform="translate(-198.11 -96)" fill="url(#linear-gradient-126)"/></g></svg>